<?xml version="1.0" standalone="no"?>
<!DOCTYPE svg PUBLIC "-//W3C//DTD SVG 20010904//EN"
 "http://www.w3.org/TR/2001/REC-SVG-20010904/DTD/svg10.dtd">
<svg version="1.0" xmlns="http://www.w3.org/2000/svg"
 width="744.000000pt" height="744.000000pt" viewBox="0 0 744.000000 744.000000"
 preserveAspectRatio="xMidYMid meet">
<metadata>
Created by potrace 1.11, written by Peter Selinger 2001-2013
</metadata>
<g transform="translate(0.000000,744.000000) scale(0.100000,-0.100000)"
fill="#000000" stroke="none">
<path d="M1729 7316 c-2 -2 -38 -7 -79 -10 -41 -4 -82 -9 -90 -11 -8 -2 -26
-6 -40 -9 -460 -80 -876 -353 -1170 -770 -72 -103 -72 -101 -134 -206 -84
-144 -169 -353 -189 -470 0 -3 -6 -36 -13 -75 -17 -95 -11 -311 10 -410 42
-193 144 -428 267 -614 34 -52 68 -102 75 -110 7 -9 42 -52 77 -96 119 -148
318 -341 498 -481 107 -84 275 -204 285 -204 4 0 19 -10 34 -22 15 -13 42 -31
59 -40 l31 -17 0 -1718 0 -1718 24 -51 c29 -62 86 -117 147 -143 39 -16 74
-19 202 -20 l155 -2 0 1953 c0 1898 0 1953 -19 1987 -30 57 -36 63 -199 171
-85 57 -157 106 -160 110 -3 3 -23 19 -45 36 -148 109 -376 322 -491 459 -150
178 -269 388 -321 565 -24 84 -28 111 -27 235 0 117 3 153 23 220 41 142 128
299 240 435 47 57 211 220 222 220 3 0 17 9 30 21 81 70 296 165 444 195 178
36 430 37 660 2 39 -5 85 -12 103 -14 29 -4 79 -13 212 -40 251 -50 610 -174
775 -267 76 -43 175 -117 175 -130 0 -5 -12 -21 -27 -36 -215 -215 -577 -651
-634 -764 -33 -63 -31 -158 5 -230 45 -93 146 -160 241 -160 84 0 135 30 260
156 211 210 341 330 551 505 346 289 769 560 1075 690 100 43 296 111 339 118
14 3 31 7 39 10 8 2 30 7 50 10 20 3 42 7 49 9 21 8 152 18 222 18 310 1 605
-75 808 -206 187 -121 322 -302 356 -477 3 -14 7 -36 11 -50 18 -82 25 -266
14 -370 -14 -129 -17 -146 -43 -249 -104 -409 -302 -659 -666 -841 -128 -63
-138 -68 -230 -103 l-85 -33 0 -2077 0 -2078 165 4 c91 2 174 6 185 9 11 4 23
7 26 7 21 3 101 68 121 99 55 82 52 -20 52 1895 l1 1778 108 62 c59 34 149 91
200 127 120 85 306 271 384 385 123 182 247 464 303 695 33 133 29 112 47 250
15 108 6 461 -13 491 -2 4 -6 24 -10 45 -10 63 -73 242 -114 324 -155 309
-428 570 -765 734 -94 46 -324 128 -390 139 -16 3 -55 10 -85 16 -99 19 -114
21 -195 28 -172 15 -370 6 -540 -23 -22 -4 -47 -8 -55 -9 -183 -24 -695 -176
-910 -271 -130 -58 -326 -159 -392 -203 l-71 -47 -41 40 c-101 97 -292 214
-486 299 -19 8 -56 24 -82 36 -126 56 -588 195 -713 214 -16 3 -50 10 -75 15
-25 6 -67 13 -95 17 -27 4 -59 9 -70 10 -11 2 -40 6 -65 9 -25 3 -63 9 -85 12
-47 6 -440 15 -446 10z"/>
<path d="M3939 3904 c-37 -27 -79 -72 -79 -85 0 -5 -4 -9 -8 -9 -11 0 -66
-111 -98 -197 -21 -54 -66 -219 -79 -284 -18 -89 -35 -191 -40 -229 -3 -25 -7
-62 -10 -82 -12 -93 -15 -117 -21 -183 -19 -213 -28 -423 -28 -655 0 -167 3
-218 18 -274 19 -72 67 -162 111 -208 l25 -27 5 -716 4 -715 22 -40 c25 -44
86 -80 135 -80 44 0 105 40 127 84 20 38 20 58 19 1590 -1 853 -2 1683 -3
1844 l0 293 -35 -3 c-20 -1 -49 -12 -65 -24z"/>
<path d="M4681 3787 c-22 -10 -60 -36 -85 -58 -111 -98 -223 -338 -243 -520
-11 -107 -7 -319 7 -381 20 -83 69 -173 130 -236 130 -133 192 -276 192 -441
0 -79 -22 -202 -50 -281 -14 -40 -16 -136 -17 -825 -2 -825 -2 -823 44 -866
30 -28 78 -49 113 -49 50 0 110 39 134 87 21 41 21 49 21 818 0 613 -3 789
-13 833 -8 32 -17 77 -20 102 -3 25 -9 65 -13 90 -28 188 33 383 164 525 111
120 144 207 146 385 2 182 -21 325 -77 480 -103 287 -267 415 -433 337z"/>
<path d="M2688 3732 c-10 -2 -18 -7 -19 -10 0 -4 -2 -14 -4 -23 -1 -8 -6 -41
-9 -71 -4 -31 -9 -66 -11 -79 -3 -12 -7 -45 -10 -73 -3 -28 -8 -62 -10 -76 -4
-27 -14 -93 -20 -137 -9 -71 -17 -129 -20 -144 -2 -9 -6 -38 -9 -65 -4 -27 -9
-65 -12 -84 -18 -117 -5 -222 38 -298 11 -20 46 -68 77 -107 74 -92 93 -120
118 -180 58 -136 62 -277 15 -475 l-30 -125 0 -760 c0 -418 2 -773 5 -789 9
-46 74 -103 126 -111 49 -8 108 12 140 46 42 45 43 69 41 879 -1 426 -5 786
-8 800 -4 14 -9 39 -11 55 -3 17 -10 55 -15 85 -9 59 -7 252 5 309 18 91 63
175 142 270 30 35 63 81 74 102 20 41 47 154 43 181 -4 29 -12 90 -24 178 -6
47 -13 95 -15 106 -2 12 -7 48 -11 80 -4 33 -9 61 -9 64 -1 3 -5 37 -10 75 -5
39 -10 72 -10 75 -1 3 -5 32 -9 65 -5 33 -10 69 -12 80 -3 11 -7 45 -10 75 -9
73 -17 89 -49 83 -19 -4 -24 -10 -20 -27 3 -11 7 -151 10 -311 3 -159 7 -365
9 -457 l4 -168 -52 0 -52 0 -1 48 c-1 26 -4 211 -8 412 -4 201 -8 394 -8 430
0 70 -6 79 -41 73 l-23 -5 -1 -466 c0 -257 -1 -474 -1 -484 -1 -13 -11 -16
-46 -16 l-45 0 -1 211 c-2 495 -6 747 -12 754 -4 3 -18 7 -32 8 -21 0 -25 -4
-26 -30 -2 -93 -10 -530 -13 -711 -2 -116 -7 -217 -11 -223 -4 -8 -23 -11 -48
-9 l-42 4 4 214 c2 118 4 281 5 362 1 82 3 148 6 148 10 0 5 240 -5 243 -5 2
-18 2 -27 -1z"/>
</g>
</svg>
