<?xml version="1.0" standalone="no"?>
<!DOCTYPE svg PUBLIC "-//W3C//DTD SVG 1.1//EN" "http://www.w3.org/Graphics/SVG/1.1/DTD/svg11.dtd" >
<svg>
<metadata>
Created by FontForge 20120731 at Sat Jun 29 14:13:43 2019
 By www
Copyright (c) 2012 by Juri Zaech. All rights reserved.
</metadata>
<defs>
<font id="FrontageW00-Regular" horiz-adv-x="590" >
  <font-face 
    font-family="FrontageW00-Regular"
    font-weight="400"
    font-stretch="normal"
    units-per-em="1000"
    panose-1="2 0 5 5 0 0 0 2 0 4"
    ascent="800"
    descent="-200"
    x-height="700"
    cap-height="700"
    bbox="0 -175 1351 950"
    underline-thickness="50"
    underline-position="-125"
    unicode-range="U+0020-2212"
  />
<missing-glyph horiz-adv-x="699" 
 />
    <glyph glyph-name=".notdef" horiz-adv-x="699" 
 />
    <glyph glyph-name=".null" horiz-adv-x="0" 
 />
    <glyph glyph-name="nonmarkingreturn" horiz-adv-x="333" 
 />
    <glyph glyph-name="space" unicode=" " horiz-adv-x="550" 
 />
    <glyph glyph-name="exclam" unicode="!" 
d="M295 198v502h100v-502h-100zM295 0v100h100v-100h-100z" />
    <glyph glyph-name="quotedbl" unicode="&#x22;" horiz-adv-x="675" 
d="M225 500v200h100v-200h-100zM450 500v200h100v-200h-100z" />
    <glyph glyph-name="numbersign" unicode="#" horiz-adv-x="1000" 
d="M825 425h-95l-36 -150h95l-25 -100h-95l-42 -175h-103l43 175h-118l-42 -175h-103l42 175h-95l24 100h95l36 150h-95l24 100h95l42 175h103l-42 -175h118l42 175h103l-42 -175h95zM591 275l36 150h-118l-36 -150h118z" />
    <glyph glyph-name="dollar" unicode="$" horiz-adv-x="780" 
d="M645 200q0 -35 -11.5 -66.5t-31.5 -57t-47.5 -44t-59.5 -26.5v-85h-100v85q-49 13 -85.5 46.5t-53.5 80.5l95 34q10 -29 35.5 -48t58.5 -19q42 0 71 29t29 71t-29 71t-71 29t-78.5 15.5t-63.5 42.5t-42.5 63.5t-15.5 78.5q0 35 11.5 66.5t31.5 57t47.5 43.5t59.5 27v80
h100v-80q48 -13 84.5 -46.5t53.5 -80.5l-94 -34q-11 29 -36.5 48t-57.5 19q-42 0 -71 -29t-29 -71t29 -71t71 -29q41 0 77.5 -16t63.5 -43t43 -63.5t16 -77.5z" />
    <glyph glyph-name="percent" unicode="%" horiz-adv-x="1031" 
d="M495 575q0 -26 -10 -48.5t-27 -39.5t-39.5 -27t-48.5 -10t-48.5 10t-39.5 27t-27 39.5t-10 48.5t10 48.5t27 39.5t39.5 27t48.5 10t48.5 -10t39.5 -27t27 -39.5t10 -48.5zM370 650q-31 0 -53 -22t-22 -53t22 -53t53 -22t53 22t22 53t-22 53t-53 22zM269 31l517 684
l60 -46l-517 -683zM886 125q0 -26 -10 -48.5t-27 -39.5t-39.5 -27t-48.5 -10t-48.5 10t-39.5 27t-27 39.5t-10 48.5t10 48.5t27 39.5t39.5 27t48.5 10t48.5 -10t39.5 -27t27 -39.5t10 -48.5zM761 200q-32 0 -53.5 -22t-21.5 -53t21.5 -53t53.5 -22q31 0 53 22t22 53t-22 53
t-53 22z" />
    <glyph glyph-name="ampersand" unicode="&#x26;" horiz-adv-x="960" 
d="M451 338l-67 -67q-15 -15 -22 -33.5t-7 -37.5t7 -37.5t22 -33.5t33.5 -22t37.5 -7t37.5 7t33.5 22l67 67zM596 59q-29 -30 -66 -44.5t-75 -14.5t-75 14.5t-67 44.5q-29 29 -44 66t-15 75t15 75t44 66l68 68l-36 35q-22 22 -33 49.5t-11 56t11 56.5t33 50t50 33t56.5 11
t56 -11t49.5 -33t33 -50t11 -56.5t-11 -56t-33 -49.5l-35 -35l141 -142l91 91l71 -71l-91 -91l91 -90l-71 -71l-91 91zM487 515q14 14 14 35t-14 35q-15 15 -36 15t-35 -15q-15 -14 -15 -35t15 -35l35 -36z" />
    <glyph glyph-name="quotesingle" unicode="'" horiz-adv-x="450" 
d="M325 500h-100v200h100v-200v0z" />
    <glyph glyph-name="parenleft" unicode="(" horiz-adv-x="548" 
d="M413 675q-42 -72 -64.5 -153.5t-22.5 -171.5t22.5 -171.5t64.5 -153.5l-87 -50q-48 83 -74 177.5t-26 197.5t26 197.5t74 177.5l87 -50v0z" />
    <glyph glyph-name="parenright" unicode=")" horiz-adv-x="547" 
d="M321 725q48 -83 74 -177.5t26 -197.5t-26 -197.5t-74 -177.5l-87 50q42 72 64.5 153.5t22.5 171.5t-22.5 171.5t-64.5 153.5z" />
    <glyph glyph-name="asterisk" unicode="*" horiz-adv-x="1004" 
d="M880 482l-228 -132l228 -132l-50 -86l-228 131v-263h-100v263l-228 -131l-50 86l228 132l-228 132l50 86l228 -131v263h100v-263l228 131z" />
    <glyph glyph-name="plus" unicode="+" horiz-adv-x="850" 
d="M725 400v-100h-200v-200h-100v200h-200v100h200v200h100v-200h200z" />
    <glyph glyph-name="comma" unicode="," horiz-adv-x="450" 
d="M325 0l-50 -100h-50v200h100v-100v0z" />
    <glyph glyph-name="hyphen" unicode="-" 
d="M495 300h-300v100h300v-100v0z" />
    <glyph glyph-name="period" unicode="." horiz-adv-x="450" 
d="M325 0h-100v100h100v-100v0z" />
    <glyph glyph-name="slash" unicode="/" horiz-adv-x="710" 
d="M251 -23l-87 50l395 696l87 -50l-395 -696v0z" />
    <glyph glyph-name="zero" unicode="0" horiz-adv-x="990" 
d="M895 350q0 -72 -27.5 -136t-75 -111.5t-111.5 -75t-136 -27.5t-136 27.5t-111.5 75t-75 111.5t-27.5 136t27.5 136t75 111.5t111.5 75t136 27.5t136 -27.5t111.5 -75t75 -111.5t27.5 -136zM545 600q-52 0 -97.5 -19.5t-79.5 -53.5t-53.5 -79.5t-19.5 -97.5t19.5 -97.5
t53.5 -79.5t79.5 -53.5t97.5 -19.5t97.5 19.5t79.5 53.5t53.5 79.5t19.5 97.5t-19.5 97.5t-53.5 79.5t-79.5 53.5t-97.5 19.5z" />
    <glyph glyph-name="one" unicode="1" 
d="M395 0h-100v700h100v-700v0z" />
    <glyph glyph-name="two" unicode="2" horiz-adv-x="839" 
d="M439 100h245v-100h-460l331 394q29 35 29 80q0 26 -10 48.5t-27 39.5t-39.5 27t-48.5 10t-48.5 -10t-39.5 -27t-27 -39.5t-10 -48.5q0 -30 14 -56l-90 -44q-11 23 -17.5 48t-6.5 52q0 47 17.5 88t48.5 71.5t71.5 48t87.5 17.5t88 -17.5t71.5 -48t48 -71.5t17.5 -88
q0 -42 -13.5 -78.5t-38.5 -65.5z" />
    <glyph glyph-name="three" unicode="3" horiz-adv-x="830" 
d="M502 441q35 -11 64.5 -31.5t51 -49t33.5 -63t12 -72.5q0 -47 -17.5 -87.5t-48.5 -71.5t-72 -48.5t-87 -17.5q-63 0 -114.5 30.5t-80.5 81.5l87 50q16 -28 44.5 -45t63.5 -17q26 0 48.5 10t39.5 27t27 39.5t10 48.5t-10 48.5t-27 39.5t-39.5 27t-48.5 10h-116l165 250
h-210v100h396z" />
    <glyph glyph-name="four" unicode="4" horiz-adv-x="895" 
d="M750 275v-100h-100v-175h-100v175h-299l125 533l97 -23l-96 -410h173v300h100v-300h100z" />
    <glyph glyph-name="five" unicode="5" horiz-adv-x="838" 
d="M458 450q46 0 87 -17.5t72 -48.5t48.5 -72t17.5 -87q0 -47 -17.5 -87.5t-48.5 -71.5t-72 -48.5t-87 -17.5q-63 0 -114.5 30.5t-80.5 81.5l87 50q16 -28 44.5 -45t63.5 -17q26 0 48.5 10t39.5 27t27 39.5t10 48.5t-10 48.5t-27 39.5t-39.5 27t-48.5 10q-31 0 -57.5 -14
t-43.5 -37l-94 38l43 363h327v-100h-238l-20 -166q20 8 40.5 12t42.5 4z" />
    <glyph glyph-name="six" unicode="6" horiz-adv-x="820" 
d="M235 225q0 55 25 103l197 399l90 -44l-116 -235q7 1 14 1.5t15 0.5q46 0 87 -17.5t72 -48.5t48.5 -72t17.5 -87q0 -47 -17.5 -87.5t-48.5 -71.5t-72 -48.5t-87 -17.5q-47 0 -87.5 17.5t-71.5 48.5t-48.5 71.5t-17.5 87.5zM460 350q-36 0 -65.5 -19t-46.5 -51
q-13 -26 -13 -55q0 -26 10 -48.5t27 -39.5t39.5 -27t48.5 -10t48.5 10t39.5 27t27 39.5t10 48.5t-10 48.5t-27 39.5t-39.5 27t-48.5 10z" />
    <glyph glyph-name="seven" unicode="7" horiz-adv-x="848" 
d="M720 700l-174 -400h61v-100h-105l-91 -208l-91 40l73 168h-61v100h105l130 300h-322v100h475z" />
    <glyph glyph-name="eight" unicode="8" horiz-adv-x="800" 
d="M580 408q44 -30 69.5 -78t25.5 -105q0 -47 -17.5 -87.5t-48.5 -71.5t-72 -48.5t-87 -17.5q-47 0 -87.5 17.5t-71.5 48.5t-48.5 71.5t-17.5 87.5q0 57 25.5 105t68.5 78q-20 23 -32 53t-12 64q0 36 13.5 68t37.5 56t56 37.5t68 13.5t68 -13.5t56 -37.5t37.5 -56t13.5 -68
q0 -34 -12 -64t-33 -53zM375 525q0 -31 21.5 -53t53.5 -22q31 0 53 22t22 53t-22 53t-53 22q-32 0 -53.5 -22t-21.5 -53zM450 100q26 0 48.5 10t39.5 27t27 39.5t10 48.5t-10 48.5t-27 39.5t-39.5 27t-48.5 10t-48.5 -10t-39.5 -27t-27 -39.5t-10 -48.5t10 -48.5t27 -39.5
t39.5 -27t48.5 -10z" />
    <glyph glyph-name="nine" unicode="9" horiz-adv-x="780" 
d="M665 475q0 -55 -25 -103l-197 -399l-90 44l116 235q-8 -1 -14.5 -1.5t-14.5 -0.5q-47 0 -87.5 17.5t-71.5 48.5t-48.5 71.5t-17.5 87.5q0 46 17.5 87t48.5 72t71.5 48.5t87.5 17.5q46 0 87 -17.5t72 -48.5t48.5 -72t17.5 -87zM440 350q36 0 65.5 18.5t45.5 49.5l1 2
q13 26 13 55q0 26 -10 48.5t-27 39.5t-39.5 27t-48.5 10t-48.5 -10t-39.5 -27t-27 -39.5t-10 -48.5t10 -48.5t27 -39.5t39.5 -27t48.5 -10z" />
    <glyph glyph-name="colon" unicode=":" horiz-adv-x="450" 
d="M225 0v100h100v-100h-100zM225 400v100h100v-100h-100z" />
    <glyph glyph-name="semicolon" unicode=";" horiz-adv-x="450" 
d="M275 -100h-50v200h100v-100zM225 400v100h100v-100h-100z" />
    <glyph glyph-name="less" unicode="&#x3c;" horiz-adv-x="822" 
d="M245 400l359 176l44 -90l-278 -136l278 -136l-44 -90l-359 176v100v0z" />
    <glyph glyph-name="equal" unicode="=" horiz-adv-x="850" 
d="M225 400v100h500v-100h-500zM225 200v100h500v-100h-500z" />
    <glyph glyph-name="greater" unicode="&#x3e;" horiz-adv-x="822" 
d="M677 400v-100l-359 -176l-44 90l278 136l-278 136l44 90z" />
    <glyph glyph-name="question" unicode="?" horiz-adv-x="703" 
d="M345 0v100h100v-100h-100zM395 700q44 0 83 -16.5t68 -45.5t45.5 -67.5t16.5 -82.5q0 -38 -12.5 -71.5t-34 -61t-51.5 -46.5t-65 -28v-81h-100v175h50q24 0 44.5 9t35.5 24.5t24 36t9 43.5t-9 43.5t-24 35.5t-35.5 24t-44.5 9q-34 0 -61.5 -18.5t-40.5 -47.5l-92 40
q25 57 77 91.5t117 34.5z" />
    <glyph glyph-name="at" unicode="@" horiz-adv-x="1030" 
d="M565 700q72 0 136 -27.5t111.5 -75t75 -111.5t27.5 -136q0 -42 -16 -78.5t-43 -63.5t-63.5 -42.5t-77.5 -15.5q-38 0 -72.5 13.5t-60.5 37.5q-5 -1 -8.5 -1h-8.5q-31 0 -58.5 12t-47.5 32t-32 47.5t-12 58.5t12 58.5t32 47.5t47.5 32t58.5 12t58.5 -12t47.5 -32t32 -47.5
t12 -58.5q0 -27 -9 -51t-24 -43q15 -6 33 -6q42 0 71 29t29 71q0 52 -19.5 97.5t-53.5 79.5t-79.5 53.5t-97.5 19.5t-97.5 -19.5t-79.5 -53.5t-53.5 -79.5t-19.5 -97.5t19.5 -97.5t53.5 -79.5t79.5 -53.5t97.5 -19.5q27 0 52.5 5.5t49.5 15.5l40 -91q-32 -14 -68 -22t-74 -8
q-72 0 -136 27.5t-111.5 75t-75 111.5t-27.5 136t27.5 136t75 111.5t111.5 75t136 27.5zM515 350q0 -21 14.5 -35.5t35.5 -14.5t35.5 14.5t14.5 35.5t-14.5 35.5t-35.5 14.5t-35.5 -14.5t-14.5 -35.5z" />
    <glyph glyph-name="A" unicode="A" horiz-adv-x="1085" 
d="M800 125h-416l-68 -125h-114l390 714l391 -714h-114zM746 225l-154 281l-153 -281h307z" />
    <glyph glyph-name="B" unicode="B" horiz-adv-x="1030" 
d="M798 371q44 -26 70.5 -71t26.5 -100q0 -42 -16 -78.5t-43 -63.5t-63.5 -42.5t-77.5 -15.5h-400v700h350q41 0 77.5 -16t63.5 -43t43 -63.5t16 -77.5q0 -37 -12.5 -70t-34.5 -59zM395 600v-200h250q42 0 71 29t29 71t-29 71t-71 29h-250zM695 100q42 0 71 29t29 71t-29 71
t-71 29h-300v-200h300z" />
    <glyph glyph-name="C" unicode="C" horiz-adv-x="939" 
d="M555 100q62 0 113.5 27t86.5 73l79 -61q-48 -63 -120.5 -101t-158.5 -38q-72 0 -136 27.5t-111.5 75t-75 111.5t-27.5 136t27.5 136t75 111.5t111.5 75t136 27.5q86 0 158.5 -38t120.5 -101l-79 -61q-35 46 -86.5 73t-113.5 27q-52 0 -97.5 -19.5t-79.5 -53.5
t-53.5 -79.5t-19.5 -97.5t19.5 -97.5t53.5 -79.5t79.5 -53.5t97.5 -19.5z" />
    <glyph glyph-name="D" unicode="D" horiz-adv-x="1000" 
d="M295 0v700h250q72 0 136 -27.5t111.5 -75t75 -111.5t27.5 -136t-27.5 -136t-75 -111.5t-111.5 -75t-136 -27.5h-250zM545 100q52 0 97.5 19.5t79.5 53.5t53.5 79.5t19.5 97.5t-19.5 97.5t-53.5 79.5t-79.5 53.5t-97.5 19.5h-150v-500h150z" />
    <glyph glyph-name="E" unicode="E" horiz-adv-x="980" 
d="M395 600v-275h300v-100h-300v-125h400v-100h-500v700h500v-100h-400z" />
    <glyph glyph-name="F" unicode="F" horiz-adv-x="930" 
d="M395 600v-275h300v-100h-300v-225h-100v700h500v-100h-400z" />
    <glyph glyph-name="G" unicode="G" horiz-adv-x="989" 
d="M740 250h-175v100h275v-217q-48 -61 -119 -97t-156 -36q-72 0 -136 27.5t-111.5 75t-75 111.5t-27.5 136t27.5 136t75 111.5t111.5 75t136 27.5q86 0 158.5 -38t120.5 -101l-79 -61q-35 46 -86.5 73t-113.5 27q-52 0 -97.5 -19.5t-79.5 -53.5t-53.5 -79.5t-19.5 -97.5
t19.5 -97.5t53.5 -79.5t79.5 -53.5t97.5 -19.5q51 0 96 19t79 52v79z" />
    <glyph glyph-name="H" unicode="H" horiz-adv-x="1090" 
d="M895 700v-700h-100v225h-400v-225h-100v700h100v-375h400v375h100z" />
    <glyph glyph-name="I" unicode="I" 
d="M395 0h-100v700h100v-700z" />
    <glyph glyph-name="J" unicode="J" horiz-adv-x="848" 
d="M563 700h100v-450q0 -52 -19.5 -97.5t-53.5 -79.5t-79.5 -53.5t-97.5 -19.5q-61 0 -112 26.5t-86 71.5l79 60q20 -26 51.5 -42t67.5 -16q31 0 58.5 12t47.5 32t32 47.5t12 58.5v450z" />
    <glyph glyph-name="K" unicode="K" horiz-adv-x="995" 
d="M727 0l-220 351l-112 -122v-229h-100v700h100v-324l297 324h136l-250 -273l267 -427h-118z" />
    <glyph glyph-name="L" unicode="L" horiz-adv-x="920" 
d="M395 100h400v-100h-500v700h100v-600z" />
    <glyph glyph-name="M" unicode="M" horiz-adv-x="1134" 
d="M821 468l-203 -220l-204 220l-36 -468h-100l54 700h4l282 -304l281 304h5l54 -700h-101z" />
    <glyph glyph-name="N" unicode="N" horiz-adv-x="1090" 
d="M895 700v-700h-6l-494 472v-472h-100v700h5l495 -472v472h100z" />
    <glyph glyph-name="O" unicode="O" horiz-adv-x="990" 
d="M895 350q0 -72 -27.5 -136t-75 -111.5t-111.5 -75t-136 -27.5t-136 27.5t-111.5 75t-75 111.5t-27.5 136t27.5 136t75 111.5t111.5 75t136 27.5t136 -27.5t111.5 -75t75 -111.5t27.5 -136zM545 600q-52 0 -97.5 -19.5t-79.5 -53.5t-53.5 -79.5t-19.5 -97.5t19.5 -97.5
t53.5 -79.5t79.5 -53.5t97.5 -19.5t97.5 19.5t79.5 53.5t53.5 79.5t19.5 97.5t-19.5 97.5t-53.5 79.5t-79.5 53.5t-97.5 19.5z" />
    <glyph glyph-name="P" unicode="P" horiz-adv-x="900" 
d="M545 700q52 0 97.5 -19.5t79.5 -53.5t53.5 -79.5t19.5 -97.5t-19.5 -97.5t-53.5 -79.5t-79.5 -53.5t-97.5 -19.5h-150v-200h-100v700h250zM545 300q31 0 58.5 12t47.5 32t32 47.5t12 58.5t-12 58.5t-32 47.5t-47.5 32t-58.5 12h-150v-300h150z" />
    <glyph glyph-name="Q" unicode="Q" horiz-adv-x="1040" 
d="M905 350q0 -76 -30 -142t-81 -114l62 -94h-120l-24 37q-72 -37 -157 -37q-72 0 -136 27.5t-111.5 75t-75 111.5t-27.5 136t27.5 136t75 111.5t111.5 75t136 27.5t136 -27.5t111.5 -75t75 -111.5t27.5 -136zM555 100q27 0 52.5 5.5t48.5 15.5l-60 93h119l23 -34
q31 33 49 76.5t18 93.5q0 52 -19.5 97.5t-53.5 79.5t-79.5 53.5t-97.5 19.5t-97.5 -19.5t-79.5 -53.5t-53.5 -79.5t-19.5 -97.5t19.5 -97.5t53.5 -79.5t79.5 -53.5t97.5 -19.5z" />
    <glyph glyph-name="R" unicode="R" horiz-adv-x="963" 
d="M802 0h-120l-131 200h-6h-150v-200h-100v700h250q52 0 97.5 -19.5t79.5 -53.5t53.5 -79.5t19.5 -97.5q0 -75 -39 -134.5t-102 -90.5zM395 300h150q31 0 58.5 12t47.5 32t32 47.5t12 58.5t-12 58.5t-32 47.5t-47.5 32t-58.5 12h-150v-300z" />
    <glyph glyph-name="S" unicode="S" horiz-adv-x="780" 
d="M445 600q-42 0 -71 -29t-29 -71t29 -71t71 -29q41 0 77.5 -16t63.5 -43t43 -63.5t16 -77.5q0 -42 -16 -78.5t-43 -63.5t-63.5 -42.5t-77.5 -15.5q-33 0 -62.5 10t-54 27.5t-43.5 42t-29 53.5l95 34q10 -29 35.5 -48t58.5 -19q42 0 71 29t29 71t-29 71t-71 29t-78.5 15.5
t-63.5 42.5t-42.5 63.5t-15.5 78.5q0 41 15.5 77.5t42.5 63.5t63.5 43t78.5 16q33 0 62.5 -10t54 -27.5t43 -42t29.5 -53.5l-95 -34q-10 29 -36 48t-58 19z" />
    <glyph glyph-name="T" unicode="T" horiz-adv-x="950" 
d="M825 700v-100h-250v-600h-100v600h-250v100h600z" />
    <glyph glyph-name="U" unicode="U" horiz-adv-x="1050" 
d="M875 300q0 -62 -23.5 -117t-64 -95.5t-95.5 -64t-117 -23.5t-117 23.5t-95.5 64t-64 95.5t-23.5 117v400h100v-400q0 -42 15.5 -78.5t42.5 -63.5t63.5 -42.5t78.5 -15.5q41 0 77.5 15.5t63.5 42.5t43 63.5t16 78.5v400h100v-400v0z" />
    <glyph glyph-name="V" unicode="V" horiz-adv-x="985" 
d="M933 700l-383 -700h-15l-383 700h114l277 -506l276 506h114z" />
    <glyph glyph-name="W" unicode="W" horiz-adv-x="1133" 
d="M456 0h-11l-268 700h107l166 -435l167 435l166 -435l167 435h107l-268 -700h-11l-161 420z" />
    <glyph glyph-name="X" unicode="X" horiz-adv-x="940" 
d="M805 0h-118l-167 266l-167 -266h-118l226 360l-214 340h119l154 -246l154 246h118l-213 -340z" />
    <glyph glyph-name="Y" unicode="Y" horiz-adv-x="893" 
d="M828 700l-282 -449v-251h-100v251l-281 449h118l213 -340l214 340h118z" />
    <glyph glyph-name="Z" unicode="Z" horiz-adv-x="864" 
d="M732 700l-331 -600h331v-100h-500l331 600h-316v100h485z" />
    <glyph glyph-name="bracketleft" unicode="[" horiz-adv-x="595" 
d="M450 700h-75v-700h75v-100h-175v900h175v-100z" />
    <glyph glyph-name="backslash" unicode="\" horiz-adv-x="710" 
d="M559 -23l-395 696l87 50l395 -696z" />
    <glyph glyph-name="bracketright" unicode="]" horiz-adv-x="595" 
d="M245 700v100h175v-900h-175v100h75v700h-75v0z" />
    <glyph glyph-name="asciicircum" unicode="^" horiz-adv-x="616" 
d="M485 349l-15 -48l-112 35l-112 -35l-15 48l127 39z" />
    <glyph glyph-name="underscore" unicode="_" horiz-adv-x="700" 
d="M700 -175h-700v100h700v-100v0z" />
    <glyph glyph-name="grave" unicode="`" horiz-adv-x="616" 
d="M470 789l-239 74l15 48l239 -74l-15 -48v0z" />
    <glyph glyph-name="a" unicode="a" horiz-adv-x="1085" 
d="M800 125h-416l-68 -125h-114l390 714l391 -714h-114zM746 225l-154 281l-153 -281h307z" />
    <glyph glyph-name="b" unicode="b" horiz-adv-x="1030" 
d="M798 371q44 -26 70.5 -71t26.5 -100q0 -42 -16 -78.5t-43 -63.5t-63.5 -42.5t-77.5 -15.5h-400v700h350q41 0 77.5 -16t63.5 -43t43 -63.5t16 -77.5q0 -37 -12.5 -70t-34.5 -59zM395 600v-200h250q42 0 71 29t29 71t-29 71t-71 29h-250zM695 100q42 0 71 29t29 71t-29 71
t-71 29h-300v-200h300z" />
    <glyph glyph-name="c" unicode="c" horiz-adv-x="939" 
d="M555 100q62 0 113.5 27t86.5 73l79 -61q-48 -63 -120.5 -101t-158.5 -38q-72 0 -136 27.5t-111.5 75t-75 111.5t-27.5 136t27.5 136t75 111.5t111.5 75t136 27.5q86 0 158.5 -38t120.5 -101l-79 -61q-35 46 -86.5 73t-113.5 27q-52 0 -97.5 -19.5t-79.5 -53.5
t-53.5 -79.5t-19.5 -97.5t19.5 -97.5t53.5 -79.5t79.5 -53.5t97.5 -19.5z" />
    <glyph glyph-name="d" unicode="d" horiz-adv-x="1000" 
d="M295 0v700h250q72 0 136 -27.5t111.5 -75t75 -111.5t27.5 -136t-27.5 -136t-75 -111.5t-111.5 -75t-136 -27.5h-250zM545 100q52 0 97.5 19.5t79.5 53.5t53.5 79.5t19.5 97.5t-19.5 97.5t-53.5 79.5t-79.5 53.5t-97.5 19.5h-150v-500h150zM296 725l-1 -1v1h1z" />
    <glyph glyph-name="e" unicode="e" horiz-adv-x="980" 
d="M395 600v-275h300v-100h-300v-125h400v-100h-500v700h500v-100h-400z" />
    <glyph glyph-name="f" unicode="f" horiz-adv-x="930" 
d="M395 600v-275h300v-100h-300v-225h-100v700h500v-100h-400z" />
    <glyph glyph-name="g" unicode="g" horiz-adv-x="989" 
d="M740 250h-175v100h275v-217q-48 -61 -119 -97t-156 -36q-72 0 -136 27.5t-111.5 75t-75 111.5t-27.5 136t27.5 136t75 111.5t111.5 75t136 27.5q86 0 158.5 -38t120.5 -101l-79 -61q-35 46 -86.5 73t-113.5 27q-52 0 -97.5 -19.5t-79.5 -53.5t-53.5 -79.5t-19.5 -97.5
t19.5 -97.5t53.5 -79.5t79.5 -53.5t97.5 -19.5q51 0 96 19t79 52v79z" />
    <glyph glyph-name="h" unicode="h" horiz-adv-x="1090" 
d="M895 700v-700h-100v225h-400v-225h-100v700h100v-375h400v375h100z" />
    <glyph glyph-name="i" unicode="i" 
d="M395 0h-100v700h100v-700v0z" />
    <glyph glyph-name="j" unicode="j" horiz-adv-x="848" 
d="M563 700h100v-450q0 -52 -19.5 -97.5t-53.5 -79.5t-79.5 -53.5t-97.5 -19.5q-61 0 -112 26.5t-86 71.5l79 60q20 -26 51.5 -42t67.5 -16q31 0 58.5 12t47.5 32t32 47.5t12 58.5v450z" />
    <glyph glyph-name="k" unicode="k" horiz-adv-x="995" 
d="M727 0l-220 351l-112 -122v-229h-100v700h100v-324l297 324h136l-250 -273l267 -427h-118z" />
    <glyph glyph-name="l" unicode="l" horiz-adv-x="920" 
d="M395 100h400v-100h-500v700h100v-600z" />
    <glyph glyph-name="m" unicode="m" horiz-adv-x="1134" 
d="M821 468l-203 -220l-204 220l-36 -468h-100l54 700h4l282 -304l281 304h5l54 -700h-101z" />
    <glyph glyph-name="n" unicode="n" horiz-adv-x="1090" 
d="M895 700v-700h-6l-494 472v-472h-100v700h5l495 -472v472h100z" />
    <glyph glyph-name="o" unicode="o" horiz-adv-x="990" 
d="M895 350q0 -72 -27.5 -136t-75 -111.5t-111.5 -75t-136 -27.5t-136 27.5t-111.5 75t-75 111.5t-27.5 136t27.5 136t75 111.5t111.5 75t136 27.5t136 -27.5t111.5 -75t75 -111.5t27.5 -136zM545 600q-52 0 -97.5 -19.5t-79.5 -53.5t-53.5 -79.5t-19.5 -97.5t19.5 -97.5
t53.5 -79.5t79.5 -53.5t97.5 -19.5t97.5 19.5t79.5 53.5t53.5 79.5t19.5 97.5t-19.5 97.5t-53.5 79.5t-79.5 53.5t-97.5 19.5z" />
    <glyph glyph-name="p" unicode="p" horiz-adv-x="900" 
d="M545 700q52 0 97.5 -19.5t79.5 -53.5t53.5 -79.5t19.5 -97.5t-19.5 -97.5t-53.5 -79.5t-79.5 -53.5t-97.5 -19.5h-150v-200h-100v700h250zM545 300q31 0 58.5 12t47.5 32t32 47.5t12 58.5t-12 58.5t-32 47.5t-47.5 32t-58.5 12h-150v-300h150z" />
    <glyph glyph-name="q" unicode="q" horiz-adv-x="1040" 
d="M905 350q0 -76 -30 -142t-81 -114l62 -94h-120l-24 37q-72 -37 -157 -37q-72 0 -136 27.5t-111.5 75t-75 111.5t-27.5 136t27.5 136t75 111.5t111.5 75t136 27.5t136 -27.5t111.5 -75t75 -111.5t27.5 -136zM555 100q27 0 52.5 5.5t48.5 15.5l-60 93h119l23 -34
q31 33 49 76.5t18 93.5q0 52 -19.5 97.5t-53.5 79.5t-79.5 53.5t-97.5 19.5t-97.5 -19.5t-79.5 -53.5t-53.5 -79.5t-19.5 -97.5t19.5 -97.5t53.5 -79.5t79.5 -53.5t97.5 -19.5z" />
    <glyph glyph-name="r" unicode="r" horiz-adv-x="963" 
d="M802 0h-120l-131 200h-6h-150v-200h-100v700h250q52 0 97.5 -19.5t79.5 -53.5t53.5 -79.5t19.5 -97.5q0 -75 -39 -134.5t-102 -90.5zM395 300h150q31 0 58.5 12t47.5 32t32 47.5t12 58.5t-12 58.5t-32 47.5t-47.5 32t-58.5 12h-150v-300z" />
    <glyph glyph-name="s" unicode="s" horiz-adv-x="780" 
d="M445 600q-42 0 -71 -29t-29 -71t29 -71t71 -29q41 0 77.5 -16t63.5 -43t43 -63.5t16 -77.5q0 -42 -16 -78.5t-43 -63.5t-63.5 -42.5t-77.5 -15.5q-33 0 -62.5 10t-54 27.5t-43.5 42t-29 53.5l95 34q10 -29 35.5 -48t58.5 -19q42 0 71 29t29 71t-29 71t-71 29t-78.5 15.5
t-63.5 42.5t-42.5 63.5t-15.5 78.5q0 41 15.5 77.5t42.5 63.5t63.5 43t78.5 16q33 0 62.5 -10t54 -27.5t43 -42t29.5 -53.5l-95 -34q-10 29 -36 48t-58 19z" />
    <glyph glyph-name="t" unicode="t" horiz-adv-x="950" 
d="M825 700v-100h-250v-600h-100v600h-250v100h600z" />
    <glyph glyph-name="u" unicode="u" horiz-adv-x="1050" 
d="M875 300q0 -62 -23.5 -117t-64 -95.5t-95.5 -64t-117 -23.5t-117 23.5t-95.5 64t-64 95.5t-23.5 117v400h100v-400q0 -42 15.5 -78.5t42.5 -63.5t63.5 -42.5t78.5 -15.5q41 0 77.5 15.5t63.5 42.5t43 63.5t16 78.5v400h100v-400v0z" />
    <glyph glyph-name="v" unicode="v" horiz-adv-x="985" 
d="M933 700l-383 -700h-15l-383 700h114l277 -506l276 506h114z" />
    <glyph glyph-name="w" unicode="w" horiz-adv-x="1133" 
d="M456 0h-11l-268 700h107l166 -435l167 435l166 -435l167 435h107l-268 -700h-11l-161 420z" />
    <glyph glyph-name="x" unicode="x" horiz-adv-x="940" 
d="M805 0h-118l-167 266l-167 -266h-118l226 360l-214 340h119l154 -246l154 246h118l-213 -340z" />
    <glyph glyph-name="y" unicode="y" horiz-adv-x="893" 
d="M828 700l-282 -449v-251h-100v251l-281 449h118l213 -340l214 340h118z" />
    <glyph glyph-name="z" unicode="z" horiz-adv-x="864" 
d="M732 700l-331 -600h331v-100h-500l331 600h-316v100h485z" />
    <glyph glyph-name="braceleft" unicode="{" horiz-adv-x="646" 
d="M324 600q0 34 10.5 64.5t29.5 55.5t45 43.5t57 27.5l29 -95q-31 -10 -51 -36t-20 -60v-174q0 -42 -15 -76q15 -36 15 -76v-174q0 -34 20 -60t51 -36l-29 -95q-31 9 -57 27.5t-45 43.5t-29.5 55.5t-10.5 64.5v174q0 23 -9 42.5t-26 33.5q35 29 35 76v174z" />
    <glyph glyph-name="bar" unicode="|" 
d="M395 -100h-100v900h100v-900v0z" />
    <glyph glyph-name="braceright" unicode="}" horiz-adv-x="645" 
d="M421 426q0 -23 9.5 -42.5t26.5 -33.5q-17 -14 -26.5 -33.5t-9.5 -42.5v-174q0 -34 -10.5 -64.5t-29.5 -55.5t-44.5 -43.5t-56.5 -27.5l-29 95q31 10 50.5 36t19.5 60v174q0 20 4 39t11 37q-7 17 -11 36.5t-4 39.5v174q0 34 -19.5 60t-50.5 36l29 95q31 -9 56.5 -27.5
t44.5 -43.5t29.5 -55.5t10.5 -64.5v-174z" />
    <glyph glyph-name="asciitilde" unicode="~" horiz-adv-x="677" 
d="M491 317q-28 -8 -57.5 -6t-56.5 17q-38 20 -77 7q-17 -6 -34 -18l-31 39q22 18 51 27q27 8 56.5 5.5t57.5 -16.5q18 -10 38 -11.5t38 4.5q19 5 34 18l32 -39q-12 -9 -24.5 -16t-26.5 -11z" />
    <glyph glyph-name="exclamdown" unicode="&#xa1;" 
d="M395 502v-502h-100v502h100zM395 700v-100h-100v100h100z" />
    <glyph glyph-name="cent" unicode="&#xa2;" horiz-adv-x="787" 
d="M475 100q36 0 67 16t52 42l79 -60q-27 -35 -65 -59.5t-83 -33.5v-80h-100v80q-43 9 -79.5 31t-63.5 54.5t-42 73.5t-15 86t15 86t42 73.5t63.5 54.5t79.5 31v80h100v-80q45 -9 83 -33.5t65 -59.5l-79 -61q-21 27 -52 43t-67 16q-31 0 -58.5 -12t-47.5 -32t-32 -47.5
t-12 -58.5t12 -58.5t32 -47.5t47.5 -32t58.5 -12z" />
    <glyph glyph-name="sterling" unicode="&#xa3;" horiz-adv-x="910" 
d="M765 100v-100h-500v100h50q21 0 35.5 14.5t14.5 35.5v50h-100v100h100v225q0 36 13.5 68t37.5 56t56 37.5t68 13.5q57 0 102 -33t63 -84l-94 -33q-8 22 -27.5 36t-43.5 14q-32 0 -53.5 -22t-21.5 -53v-225h100v-100h-100v-50q0 -26 -9 -50h309z" />
    <glyph glyph-name="currency" unicode="&#xa4;" horiz-adv-x="830" 
d="M695 191l-71 -71l-58 58q-47 -28 -101 -28t-102 28l-57 -58l-71 71l57 57q-27 48 -27 102t27 102l-57 57l71 71l57 -58q48 28 102 28t101 -28l58 58l71 -71l-58 -57q28 -48 28 -102t-28 -102zM394 279q15 -15 33 -22t37.5 -7t37.5 7t33 22t22.5 33.5t7.5 37.5t-7.5 37.5
t-22.5 33.5t-33 22t-37.5 7t-37.5 -7t-33 -22t-22 -33.5t-7 -37.5t7 -37.5t22 -33.5z" />
    <glyph glyph-name="yen" unicode="&#xa5;" horiz-adv-x="993" 
d="M878 700l-188 -300h81v-100h-144l-31 -49v-51h175v-100h-175v-100h-100v100h-175v100h175v51l-30 49h-145v100h82l-188 300h118l213 -340l214 340h118z" />
    <glyph glyph-name="brokenbar" unicode="&#xa6;" 
d="M295 450v350h100v-350h-100zM295 -100v350h100v-350h-100z" />
    <glyph glyph-name="section" unicode="&#xa7;" horiz-adv-x="840" 
d="M695 350q0 -42 -14 -79.5t-40 -66.5q14 -23 21.5 -49t7.5 -55q0 -42 -16 -78.5t-43 -63.5t-63.5 -42.5t-77.5 -15.5q-33 0 -62.5 10t-54 27.5t-43.5 42t-29 53.5l95 34q10 -29 35.5 -48t58.5 -19q42 0 71 29t29 71q0 12 -2.5 22.5t-7.5 21.5q-44 -19 -90 -19
q-47 0 -87.5 17.5t-71.5 48.5t-48.5 71.5t-17.5 87.5q0 42 14 79.5t40 66.5q-14 23 -21.5 49t-7.5 55q0 41 15.5 77.5t42.5 63.5t63.5 43t78.5 16q33 0 62.5 -10t54 -27.5t43 -42t29.5 -53.5l-95 -34q-10 29 -36 48t-58 19q-42 0 -71 -29t-29 -71q0 -22 10 -44q44 19 90 19
t87 -17.5t72 -48.5t48.5 -72t17.5 -87zM345 350q0 -26 10 -48.5t27 -39.5t39.5 -27t48.5 -10t48.5 10t39.5 27t27 39.5t10 48.5t-10 48.5t-27 39.5t-39.5 27t-48.5 10t-48.5 -10t-39.5 -27t-27 -39.5t-10 -48.5z" />
    <glyph glyph-name="dieresis" unicode="&#xa8;" horiz-adv-x="750" 
d="M325 850q0 -21 -14.5 -35.5t-35.5 -14.5t-35.5 14.5t-14.5 35.5t14.5 35.5t35.5 14.5t35.5 -14.5t14.5 -35.5zM625 850q0 -21 -14.5 -35.5t-35.5 -14.5t-35.5 14.5t-14.5 35.5t14.5 35.5t35.5 14.5t35.5 -14.5t14.5 -35.5z" />
    <glyph glyph-name="copyright" unicode="&#xa9;" 
d="M495 550q0 -31 -12 -58.5t-32 -47.5t-47.5 -32t-58.5 -12t-58.5 12t-47.5 32t-32 47.5t-12 58.5t12 58.5t32 47.5t47.5 32t58.5 12t58.5 -12t47.5 -32t32 -47.5t12 -58.5zM245 549q0 -21 8 -39.5t21.5 -32.5t32 -22t39.5 -8q25 0 46 11t35 30l4 5l-33 25l-4 -6
q-18 -24 -48 -24q-25 0 -43 17.5t-18 43.5q0 25 18 42.5t43 17.5q30 0 48 -24l4 -5l33 24l-4 6q-14 18 -35 29t-46 11q-21 0 -39.5 -8t-32 -21.5t-21.5 -32t-8 -39.5z" />
    <glyph glyph-name="ordfeminine" unicode="&#xaa;" horiz-adv-x="612" 
d="M500 450h-57l-18 33h-138l-18 -33h-57l144 264zM398 533l-42 77l-42 -77h84z" />
    <glyph glyph-name="guillemotleft" unicode="&#xab;" horiz-adv-x="738" 
d="M416 497l-103 -147l103 -147l-82 -58l-143 205l143 205zM643 497l-103 -147l103 -147l-82 -58l-143 205l143 205z" />
    <glyph glyph-name="logicalnot" unicode="&#xac;" horiz-adv-x="910" 
d="M235 400h500v-250h-100v150h-400v100z" />
    <glyph glyph-name="registered" unicode="&#xae;" 
d="M495 550q0 -31 -12 -58.5t-32 -47.5t-47.5 -32t-58.5 -12t-58.5 12t-47.5 32t-32 47.5t-12 58.5t12 58.5t32 47.5t47.5 32t58.5 12t58.5 -12t47.5 -32t32 -47.5t12 -58.5zM316 610h34q14 0 24 -10t10 -24t-10 -24t-24 -10h-34v68zM389 513q16 10 25.5 26.5t9.5 36.5
q0 31 -21.5 52.5t-52.5 21.5h-74v-202h40v54h32l35 -54h48z" />
    <glyph glyph-name="degree" unicode="&#xb0;" horiz-adv-x="490" 
d="M395 600q0 -42 -29 -71t-71 -29t-71 29t-29 71t29 71t71 29t71 -29t29 -71zM295 650q-21 0 -35.5 -14.5t-14.5 -35.5t14.5 -35.5t35.5 -14.5t35.5 14.5t14.5 35.5t-14.5 35.5t-35.5 14.5z" />
    <glyph glyph-name="plusminus" unicode="&#xb1;" horiz-adv-x="850" 
d="M225 50v100h500v-100h-500zM725 525v-100h-200v-200h-100v200h-200v100h200v200h100v-200h200z" />
    <glyph glyph-name="uni00B2" unicode="&#xb2;" horiz-adv-x="470" 
d="M375 617q0 -31 -20 -54l-53 -63h73v-50h-180l122 145q8 10 8 22q0 14 -10 23.5t-24 9.5t-23.5 -9.5t-9.5 -23.5q0 -9 3 -15l4 -8l-45 -22l-3 7q-9 16 -9 38q0 35 24 59t59 24t59.5 -24t24.5 -59z" />
    <glyph glyph-name="uni00B3" unicode="&#xb3;" horiz-adv-x="467" 
d="M312 609q22 -10 35.5 -30t13.5 -46q0 -35 -24 -59t-59 -24q-26 0 -46 13.5t-30 35.5l44 25q3 -11 12 -17.5t20 -6.5q14 0 23.5 9.5t9.5 23.5t-9.5 24t-23.5 10h-54l55 83h-63v50h156z" />
    <glyph glyph-name="acute" unicode="&#xb4;" horiz-adv-x="616" 
d="M246 789l-15 48l239 74l15 -48z" />
    <glyph glyph-name="mu" unicode="&#xb5;" horiz-adv-x="1090" 
d="M774 700h121v-700h-100v554l-200 -291l-200 291v-554h-100v700h121l179 -260z" />
    <glyph glyph-name="mu" unicode="&#x3bc;" horiz-adv-x="1090" 
d="M774 700h121v-700h-100v554l-200 -291l-200 291v-554h-100v700h121l179 -260z" />
    <glyph glyph-name="paragraph" unicode="&#xb6;" horiz-adv-x="860" 
d="M705 700v-100h-50v-600h-100v600h-50v-600h-100v300q-42 0 -78.5 15.5t-63.5 42.5t-42.5 63.5t-15.5 78.5q0 41 15.5 77.5t42.5 63.5t63.5 43t78.5 16h300z" />
    <glyph glyph-name="periodcentered" unicode="&#xb7;" horiz-adv-x="390" 
d="M295 350q0 -21 -14.5 -35.5t-35.5 -14.5t-35.5 14.5t-14.5 35.5t14.5 35.5t35.5 14.5t35.5 -14.5t14.5 -35.5z" />
    <glyph glyph-name="cedilla" unicode="&#xb8;" horiz-adv-x="425" 
d="M250 0h50v-100h-75v25h25v75z" />
    <glyph glyph-name="uni00B9" unicode="&#xb9;" horiz-adv-x="340" 
d="M245 450h-50v250h50v-250v0z" />
    <glyph glyph-name="ordmasculine" unicode="&#xba;" horiz-adv-x="600" 
d="M475 575q0 -26 -10 -48.5t-27 -39.5t-39.5 -27t-48.5 -10t-48.5 10t-39.5 27t-27 39.5t-10 48.5t10 48.5t27 39.5t39.5 27t48.5 10t48.5 -10t39.5 -27t27 -39.5t10 -48.5zM350 650q-31 0 -53 -22t-22 -53t22 -53t53 -22t53 22t22 53t-22 53t-53 22z" />
    <glyph glyph-name="guillemotright" unicode="&#xbb;" horiz-adv-x="738" 
d="M278 555l143 -205l-143 -205l-82 58l103 147l-103 147zM505 555l143 -205l-143 -205l-82 58l103 147l-103 147z" />
    <glyph glyph-name="onequarter" unicode="&#xbc;" horiz-adv-x="1007" 
d="M284 450v250h50v-250h-50zM255 31l518 684l59 -46l-517 -683zM771 243l-31 -135h38v100h50v-100h34v-50h-34v-58h-50v58h-101l45 196z" />
    <glyph glyph-name="onehalf" unicode="&#xbd;" horiz-adv-x="1005" 
d="M284 450v250h50v-250h-50zM255 31l517 684l60 -46l-518 -683zM860 167q0 -31 -20 -54l-53 -63h73v-50h-180l122 145q8 10 8 22q0 14 -10 23.5t-24 9.5t-23.5 -9.5t-9.5 -23.5q0 -9 4 -16l3 -7l-44 -22l-4 7q-9 16 -9 38q0 35 24 59t59 24t59.5 -24t24.5 -59z" />
    <glyph glyph-name="threequarters" unicode="&#xbe;" horiz-adv-x="1022" 
d="M362 609q22 -10 36 -30t14 -46q0 -35 -24.5 -59t-59.5 -24q-25 0 -45 13.5t-31 35.5l44 25q3 -11 12 -17.5t20 -6.5q14 0 24 9.5t10 23.5t-10 24t-24 10h-54l55 83h-63v50h156zM270 31l518 684l59 -46l-517 -683zM786 243l-31 -135h38v100h50v-100h34v-50h-34v-58h-50v58
h-101l45 196z" />
    <glyph glyph-name="questiondown" unicode="&#xbf;" horiz-adv-x="703" 
d="M457 700v-100h-100v100h100zM407 -1q-44 0 -82.5 17t-67.5 46t-45.5 67.5t-16.5 82.5q0 37 12 71t34 61.5t51.5 46.5t64.5 28v81h100v-176h-50q-23 0 -43.5 -9t-35.5 -24t-24 -35.5t-9 -43.5t9 -43.5t24 -36t35.5 -24.5t43.5 -9q35 0 62.5 19t40.5 48l92 -40
q-25 -57 -77 -92t-118 -35z" />
    <glyph glyph-name="Agrave" unicode="&#xc0;" horiz-adv-x="1085" 
d="M703 789l-239 74l14 48l239 -74zM801 125h-416l-69 -125h-114l391 714l390 -714h-114zM746 225l-153 281l-154 -281h307z" />
    <glyph glyph-name="Aacute" unicode="&#xc1;" horiz-adv-x="1085" 
d="M464 837l239 74l15 -48l-239 -74zM801 125h-416l-69 -125h-114l391 714l390 -714h-114zM746 225l-153 281l-154 -281h307z" />
    <glyph glyph-name="Acircumflex" unicode="&#xc2;" horiz-adv-x="1085" 
d="M705 789l-113 35l-112 -35l-14 48l126 39l127 -39zM801 125h-417l-68 -125h-114l390 714l391 -714h-114zM746 225l-154 281l-153 -281h307z" />
    <glyph glyph-name="Atilde" unicode="&#xc3;" horiz-adv-x="1085" 
d="M695 806q-27 -8 -56.5 -6t-57.5 17q-18 10 -38 11.5t-38 -4.5q-20 -7 -34 -18l-32 39q24 18 51 27q28 8 57.5 5.5t56.5 -16.5q38 -20 77 -7q18 4 33 18l32 -39q-11 -9 -24 -16t-27 -11zM801 125h-416l-69 -125h-114l391 714l390 -714h-114zM746 225l-153 281l-154 -281
h307z" />
    <glyph glyph-name="Adieresis" unicode="&#xc4;" horiz-adv-x="1085" 
d="M492 850q0 -21 -14.5 -35.5t-35.5 -14.5q-20 0 -35 14.5t-15 35.5q0 20 15 35t35 15q21 0 35.5 -15t14.5 -35zM792 850q0 -21 -14.5 -35.5t-35.5 -14.5q-20 0 -35 14.5t-15 35.5q0 20 15 35t35 15q21 0 35.5 -15t14.5 -35zM800 125h-416l-68 -125h-114l390 714l391 -714
h-114zM746 225l-154 281l-153 -281h307z" />
    <glyph glyph-name="Aring" unicode="&#xc5;" horiz-adv-x="1085" 
d="M667 875q0 -32 -22 -53.5t-53 -21.5t-53 21.5t-22 53.5q0 31 22 53t53 22t53 -22t22 -53zM592 900q-11 0 -18 -7t-7 -18t7 -18t18 -7t18 7t7 18t-7 18t-18 7zM800 125h-416l-68 -125h-114l390 714l390 -714h-114zM745 225l-153 281l-153 -281h306z" />
    <glyph glyph-name="AE" unicode="&#xc6;" horiz-adv-x="1348" 
d="M763 600v-275h300v-100h-300v-125h400v-100h-500v100h-292l-55 -100h-114l382 700h579v-100h-400zM663 200v400h-19l-219 -400h238z" />
    <glyph glyph-name="Ccedilla" unicode="&#xc7;" horiz-adv-x="939" 
d="M555 100q62 0 113.5 27t86.5 73l79 -61q-45 -59 -110.5 -96t-143.5 -42v-101h-75v25h25v76q-68 5 -127.5 34t-103.5 76t-69 108.5t-25 130.5q0 72 27.5 136t75 111.5t111.5 75t136 27.5q86 0 158.5 -38t120.5 -101l-79 -61q-35 46 -86.5 73t-113.5 27q-52 0 -97.5 -19.5
t-79.5 -53.5t-53.5 -79.5t-19.5 -97.5t19.5 -97.5t53.5 -79.5t79.5 -53.5t97.5 -19.5z" />
    <glyph glyph-name="Egrave" unicode="&#xc8;" horiz-adv-x="980" 
d="M657 789l-239 74l15 48l239 -74zM395 600v-275h300v-100h-300v-125h400v-100h-500v700h500v-100h-400z" />
    <glyph glyph-name="Eacute" unicode="&#xc9;" horiz-adv-x="980" 
d="M418 837l239 74l15 -48l-239 -74zM395 600v-275h300v-100h-300v-125h400v-100h-500v700h500v-100h-400z" />
    <glyph glyph-name="Ecircumflex" unicode="&#xca;" horiz-adv-x="980" 
d="M657 789l-112 35l-112 -35l-15 48l127 39l127 -39zM395 600v-275h300v-100h-300v-125h400v-100h-500v700h500v-100h-400z" />
    <glyph glyph-name="Edieresis" unicode="&#xcb;" horiz-adv-x="980" 
d="M445 850q0 -21 -14.5 -35.5t-35.5 -14.5q-20 0 -35 14.5t-15 35.5t15 35.5t35 14.5q21 0 35.5 -14.5t14.5 -35.5zM745 850q0 -21 -14.5 -35.5t-35.5 -14.5q-20 0 -35 14.5t-15 35.5t15 35.5t35 14.5q21 0 35.5 -14.5t14.5 -35.5zM395 600v-275h300v-100h-300v-125h400
v-100h-500v700h500v-100h-400z" />
    <glyph glyph-name="Igrave" unicode="&#xcc;" 
d="M218 863l15 48l239 -74l-15 -48zM295 0v700h100v-700h-100z" />
    <glyph glyph-name="Iacute" unicode="&#xcd;" 
d="M233 789l-15 48l239 74l15 -48zM295 0v700h100v-700h-100z" />
    <glyph glyph-name="Icircumflex" unicode="&#xce;" 
d="M472 837l-15 -48l-112 35l-112 -35l-15 48l127 39zM295 0v700h100v-700h-100z" />
    <glyph glyph-name="Idieresis" unicode="&#xcf;" 
d="M245 850q0 -21 -14.5 -35.5t-35.5 -14.5t-35.5 14.5t-14.5 35.5t14.5 35.5t35.5 14.5t35.5 -14.5t14.5 -35.5zM545 850q0 -21 -14.5 -35.5t-35.5 -14.5t-35.5 14.5t-14.5 35.5t14.5 35.5t35.5 14.5t35.5 -14.5t14.5 -35.5zM295 0v700h100v-700h-100z" />
    <glyph glyph-name="Eth" unicode="&#xd0;" horiz-adv-x="1050" 
d="M595 700q72 0 136 -27.5t111.5 -75t75 -111.5t27.5 -136t-27.5 -136t-75 -111.5t-111.5 -75t-136 -27.5h-250v200h-100v100h100v400h250zM595 100q52 0 97.5 19.5t79.5 53.5t53.5 79.5t19.5 97.5t-19.5 97.5t-53.5 79.5t-79.5 53.5t-97.5 19.5h-150v-300h100v-100h-100
v-100h150z" />
    <glyph glyph-name="Ntilde" unicode="&#xd1;" horiz-adv-x="1090" 
d="M698 806q-28 -8 -57.5 -5.5t-57.5 16.5q-36 20 -76 7q-19 -5 -34 -18l-31 39q11 9 23.5 16t26.5 11q28 8 57.5 6t57.5 -17q36 -20 76 -7q20 7 34 18l31 -39q-22 -18 -50 -27zM895 700v-700h-6l-494 472v-472h-100v700h5l495 -472v472h100z" />
    <glyph glyph-name="Ograve" unicode="&#xd2;" horiz-adv-x="990" 
d="M418 863l15 48l239 -74l-15 -48zM895 350q0 -72 -27.5 -136t-75 -111.5t-111.5 -75t-136 -27.5t-136 27.5t-111.5 75t-75 111.5t-27.5 136t27.5 136t75 111.5t111.5 75t136 27.5t136 -27.5t111.5 -75t75 -111.5t27.5 -136zM545 600q-52 0 -97.5 -19.5t-79.5 -53.5
t-53.5 -79.5t-19.5 -97.5t19.5 -97.5t53.5 -79.5t79.5 -53.5t97.5 -19.5t97.5 19.5t79.5 53.5t53.5 79.5t19.5 97.5t-19.5 97.5t-53.5 79.5t-79.5 53.5t-97.5 19.5z" />
    <glyph glyph-name="Oacute" unicode="&#xd3;" horiz-adv-x="990" 
d="M433 789l-15 48l239 74l15 -48zM895 350q0 -72 -27.5 -136t-75 -111.5t-111.5 -75t-136 -27.5t-136 27.5t-111.5 75t-75 111.5t-27.5 136t27.5 136t75 111.5t111.5 75t136 27.5t136 -27.5t111.5 -75t75 -111.5t27.5 -136zM545 600q-52 0 -97.5 -19.5t-79.5 -53.5
t-53.5 -79.5t-19.5 -97.5t19.5 -97.5t53.5 -79.5t79.5 -53.5t97.5 -19.5t97.5 19.5t79.5 53.5t53.5 79.5t19.5 97.5t-19.5 97.5t-53.5 79.5t-79.5 53.5t-97.5 19.5z" />
    <glyph glyph-name="Ocircumflex" unicode="&#xd4;" horiz-adv-x="990" 
d="M672 837l-15 -48l-112 35l-112 -35l-15 48l127 39zM895 350q0 -72 -27.5 -136t-75 -111.5t-111.5 -75t-136 -27.5t-136 27.5t-111.5 75t-75 111.5t-27.5 136t27.5 136t75 111.5t111.5 75t136 27.5t136 -27.5t111.5 -75t75 -111.5t27.5 -136zM545 600q-52 0 -97.5 -19.5
t-79.5 -53.5t-53.5 -79.5t-19.5 -97.5t19.5 -97.5t53.5 -79.5t79.5 -53.5t97.5 -19.5t97.5 19.5t79.5 53.5t53.5 79.5t19.5 97.5t-19.5 97.5t-53.5 79.5t-79.5 53.5t-97.5 19.5z" />
    <glyph glyph-name="Otilde" unicode="&#xd5;" horiz-adv-x="990" 
d="M647 806q-27 -8 -56.5 -6t-57.5 17q-36 20 -76 7q-17 -4 -34 -18l-31 39q22 18 50 27q28 8 57.5 6t57.5 -17q36 -20 76 -7q9 2 17.5 7t16.5 11l31 -39q-23 -18 -51 -27zM895 350q0 -72 -27.5 -136t-75 -111.5t-111.5 -75t-136 -27.5t-136 27.5t-111.5 75t-75 111.5
t-27.5 136t27.5 136t75 111.5t111.5 75t136 27.5t136 -27.5t111.5 -75t75 -111.5t27.5 -136zM545 600q-52 0 -97.5 -19.5t-79.5 -53.5t-53.5 -79.5t-19.5 -97.5t19.5 -97.5t53.5 -79.5t79.5 -53.5t97.5 -19.5t97.5 19.5t79.5 53.5t53.5 79.5t19.5 97.5t-19.5 97.5
t-53.5 79.5t-79.5 53.5t-97.5 19.5z" />
    <glyph glyph-name="Odieresis" unicode="&#xd6;" horiz-adv-x="990" 
d="M445 850q0 -21 -14.5 -35.5t-35.5 -14.5t-35.5 14.5t-14.5 35.5t14.5 35.5t35.5 14.5t35.5 -14.5t14.5 -35.5zM745 850q0 -21 -14.5 -35.5t-35.5 -14.5t-35.5 14.5t-14.5 35.5t14.5 35.5t35.5 14.5t35.5 -14.5t14.5 -35.5zM895 350q0 -72 -27.5 -136t-75 -111.5
t-111.5 -75t-136 -27.5t-136 27.5t-111.5 75t-75 111.5t-27.5 136t27.5 136t75 111.5t111.5 75t136 27.5t136 -27.5t111.5 -75t75 -111.5t27.5 -136zM545 600q-52 0 -97.5 -19.5t-79.5 -53.5t-53.5 -79.5t-19.5 -97.5t19.5 -97.5t53.5 -79.5t79.5 -53.5t97.5 -19.5
t97.5 19.5t79.5 53.5t53.5 79.5t19.5 97.5t-19.5 97.5t-53.5 79.5t-79.5 53.5t-97.5 19.5z" />
    <glyph glyph-name="multiply" unicode="&#xd7;" horiz-adv-x="817" 
d="M611 562l71 -71l-141 -141l141 -141l-71 -71l-141 141l-141 -141l-71 71l141 141l-141 141l71 71l141 -141z" />
    <glyph glyph-name="Oslash" unicode="&#xd8;" horiz-adv-x="1038" 
d="M923 633l-74 -73q33 -45 51.5 -97.5t18.5 -112.5q0 -72 -27.5 -136t-75 -111.5t-111.5 -75t-136 -27.5q-60 0 -112.5 18.5t-97.5 51.5l-73 -74l-71 71l74 73q-33 45 -51.5 97.5t-18.5 112.5q0 72 27.5 136t75 111.5t111.5 75t136 27.5q60 0 112.5 -18.5t97.5 -51.5l73 74
zM319 350q0 -38 10.5 -73t30.5 -65l347 347q-30 20 -65 30.5t-73 10.5q-52 0 -97.5 -19.5t-79.5 -53.5t-53.5 -79.5t-19.5 -97.5zM819 350q0 38 -10.5 73t-30.5 65l-347 -347q30 -20 65 -30.5t73 -10.5q52 0 97.5 19.5t79.5 53.5t53.5 79.5t19.5 97.5z" />
    <glyph glyph-name="Ugrave" unicode="&#xd9;" horiz-adv-x="1050" 
d="M448 863l15 48l239 -74l-15 -48zM875 300q0 -62 -23.5 -117t-64 -95.5t-95.5 -64t-117 -23.5t-117 23.5t-95.5 64t-64 95.5t-23.5 117v400h100v-400q0 -42 15.5 -78.5t42.5 -63.5t63.5 -42.5t78.5 -15.5q41 0 77.5 15.5t63.5 42.5t43 63.5t16 78.5v400h100v-400z" />
    <glyph glyph-name="Uacute" unicode="&#xda;" horiz-adv-x="1050" 
d="M463 789l-15 48l239 74l15 -48zM875 300q0 -62 -23.5 -117t-64 -95.5t-95.5 -64t-117 -23.5t-117 23.5t-95.5 64t-64 95.5t-23.5 117v400h100v-400q0 -42 15.5 -78.5t42.5 -63.5t63.5 -42.5t78.5 -15.5q41 0 77.5 15.5t63.5 42.5t43 63.5t16 78.5v400h100v-400z" />
    <glyph glyph-name="Ucircumflex" unicode="&#xdb;" horiz-adv-x="1050" 
d="M702 837l-15 -48l-112 35l-112 -35l-15 48l127 39zM875 300q0 -62 -23.5 -117t-64 -95.5t-95.5 -64t-117 -23.5t-117 23.5t-95.5 64t-64 95.5t-23.5 117v400h100v-400q0 -42 15.5 -78.5t42.5 -63.5t63.5 -42.5t78.5 -15.5q41 0 77.5 15.5t63.5 42.5t43 63.5t16 78.5v400
h100v-400z" />
    <glyph glyph-name="Udieresis" unicode="&#xdc;" horiz-adv-x="1050" 
d="M475 850q0 -21 -14.5 -35.5t-35.5 -14.5t-35.5 14.5t-14.5 35.5t14.5 35.5t35.5 14.5t35.5 -14.5t14.5 -35.5zM775 850q0 -21 -14.5 -35.5t-35.5 -14.5t-35.5 14.5t-14.5 35.5t14.5 35.5t35.5 14.5t35.5 -14.5t14.5 -35.5zM875 300q0 -62 -23.5 -117t-64 -95.5t-95.5 -64
t-117 -23.5t-117 23.5t-95.5 64t-64 95.5t-23.5 117v400h100v-400q0 -42 15.5 -78.5t42.5 -63.5t63.5 -42.5t78.5 -15.5q41 0 77.5 15.5t63.5 42.5t43 63.5t16 78.5v400h100v-400z" />
    <glyph glyph-name="Yacute" unicode="&#xdd;" horiz-adv-x="893" 
d="M384 789l-15 48l239 74l15 -48zM828 700l-282 -449v-251h-100v251l-281 449h118l213 -340l214 340h118z" />
    <glyph glyph-name="Thorn" unicode="&#xde;" horiz-adv-x="930" 
d="M545 600q52 0 97.5 -19.5t79.5 -53.5t53.5 -79.5t19.5 -97.5t-19.5 -97.5t-53.5 -79.5t-79.5 -53.5t-97.5 -19.5h-150v-100h-100v700h100v-100h150zM545 200q31 0 58.5 12t47.5 32t32 47.5t12 58.5t-12 58.5t-32 47.5t-47.5 32t-58.5 12h-150v-300h150z" />
    <glyph glyph-name="germandbls" unicode="&#xdf;" horiz-adv-x="890" 
d="M636 217q29 -29 44 -66t15 -75v-76h-100v76q0 19 -7.5 37.5t-21.5 32.5q-29 30 -44 67t-15 75t15 75t44 66t29 71t-29 71t-71 29t-71 -29t-29 -71v-500h-100v500q0 41 15.5 77.5t42.5 63.5t63.5 43t78.5 16q41 0 77.5 -16t63.5 -43t43 -63.5t16 -77.5q0 -42 -15.5 -78
t-43.5 -63q-15 -15 -22 -33.5t-7 -38t7 -37.5t22 -33z" />
    <glyph glyph-name="agrave" unicode="&#xe0;" horiz-adv-x="1085" 
d="M703 789l-239 74l14 48l239 -74zM801 125h-416l-69 -125h-114l391 714l390 -714h-114zM746 225l-153 281l-154 -281h307z" />
    <glyph glyph-name="aacute" unicode="&#xe1;" horiz-adv-x="1085" 
d="M464 837l239 74l15 -48l-239 -74zM801 125h-416l-69 -125h-114l391 714l390 -714h-114zM746 225l-153 281l-154 -281h307z" />
    <glyph glyph-name="acircumflex" unicode="&#xe2;" horiz-adv-x="1085" 
d="M705 789l-113 35l-112 -35l-14 48l126 39l127 -39zM801 125h-417l-68 -125h-114l390 714l391 -714h-114zM746 225l-154 281l-153 -281h307z" />
    <glyph glyph-name="atilde" unicode="&#xe3;" horiz-adv-x="1085" 
d="M695 806q-27 -8 -56.5 -6t-57.5 17q-18 10 -38 11.5t-38 -4.5q-20 -7 -34 -18l-32 39q24 18 51 27q28 8 57.5 5.5t56.5 -16.5q38 -20 77 -7q18 4 33 18l32 -39q-11 -9 -24 -16t-27 -11zM801 125h-416l-69 -125h-114l391 714l390 -714h-114zM746 225l-153 281l-154 -281
h307z" />
    <glyph glyph-name="adieresis" unicode="&#xe4;" horiz-adv-x="1085" 
d="M492 850q0 -21 -14.5 -35.5t-35.5 -14.5q-20 0 -35 14.5t-15 35.5q0 20 15 35t35 15q21 0 35.5 -15t14.5 -35zM792 850q0 -21 -14.5 -35.5t-35.5 -14.5q-20 0 -35 14.5t-15 35.5q0 20 15 35t35 15q21 0 35.5 -15t14.5 -35zM800 125h-416l-68 -125h-114l390 714l391 -714
h-114zM746 225l-154 281l-153 -281h307z" />
    <glyph glyph-name="aring" unicode="&#xe5;" horiz-adv-x="1085" 
d="M667 875q0 -32 -22 -53.5t-53 -21.5t-53 21.5t-22 53.5q0 31 22 53t53 22t53 -22t22 -53zM592 900q-11 0 -18 -7t-7 -18t7 -18t18 -7t18 7t7 18t-7 18t-18 7zM800 125h-416l-68 -125h-114l390 714l390 -714h-114zM745 225l-153 281l-153 -281h306z" />
    <glyph glyph-name="ae" unicode="&#xe6;" horiz-adv-x="1348" 
d="M763 600v-275h300v-100h-300v-125h400v-100h-500v100h-292l-55 -100h-114l382 700h579v-100h-400zM663 200v400h-19l-219 -400h238z" />
    <glyph glyph-name="ccedilla" unicode="&#xe7;" horiz-adv-x="939" 
d="M555 100q62 0 113.5 27t86.5 73l79 -61q-45 -59 -110.5 -96t-143.5 -42v-101h-75v25h25v76q-68 5 -127.5 34t-103.5 76t-69 108.5t-25 130.5q0 72 27.5 136t75 111.5t111.5 75t136 27.5q86 0 158.5 -38t120.5 -101l-79 -61q-35 46 -86.5 73t-113.5 27q-52 0 -97.5 -19.5
t-79.5 -53.5t-53.5 -79.5t-19.5 -97.5t19.5 -97.5t53.5 -79.5t79.5 -53.5t97.5 -19.5z" />
    <glyph glyph-name="egrave" unicode="&#xe8;" horiz-adv-x="980" 
d="M657 789l-239 74l15 48l239 -74zM395 600v-275h300v-100h-300v-125h400v-100h-500v700h500v-100h-400z" />
    <glyph glyph-name="eacute" unicode="&#xe9;" horiz-adv-x="980" 
d="M418 837l239 74l15 -48l-239 -74zM395 600v-275h300v-100h-300v-125h400v-100h-500v700h500v-100h-400z" />
    <glyph glyph-name="ecircumflex" unicode="&#xea;" horiz-adv-x="980" 
d="M657 789l-112 35l-112 -35l-15 48l127 39l127 -39zM395 600v-275h300v-100h-300v-125h400v-100h-500v700h500v-100h-400z" />
    <glyph glyph-name="edieresis" unicode="&#xeb;" horiz-adv-x="980" 
d="M445 850q0 -21 -14.5 -35.5t-35.5 -14.5q-20 0 -35 14.5t-15 35.5t15 35.5t35 14.5q21 0 35.5 -14.5t14.5 -35.5zM745 850q0 -21 -14.5 -35.5t-35.5 -14.5q-20 0 -35 14.5t-15 35.5t15 35.5t35 14.5q21 0 35.5 -14.5t14.5 -35.5zM395 600v-275h300v-100h-300v-125h400
v-100h-500v700h500v-100h-400z" />
    <glyph glyph-name="igrave" unicode="&#xec;" horiz-adv-x="565" 
d="M218 863l15 48l239 -74l-15 -48zM295 0v700h100v-700h-100z" />
    <glyph glyph-name="iacute" unicode="&#xed;" 
d="M233 789l-15 48l239 74l15 -48zM295 0v700h100v-700h-100z" />
    <glyph glyph-name="icircumflex" unicode="&#xee;" 
d="M472 837l-15 -48l-112 35l-112 -35l-15 48l127 39zM295 0v700h100v-700h-100z" />
    <glyph glyph-name="idieresis" unicode="&#xef;" 
d="M245 850q0 -21 -14.5 -35.5t-35.5 -14.5t-35.5 14.5t-14.5 35.5t14.5 35.5t35.5 14.5t35.5 -14.5t14.5 -35.5zM545 850q0 -21 -14.5 -35.5t-35.5 -14.5t-35.5 14.5t-14.5 35.5t14.5 35.5t35.5 14.5t35.5 -14.5t14.5 -35.5zM295 0v700h100v-700h-100z" />
    <glyph glyph-name="eth" unicode="&#xf0;" horiz-adv-x="1050" 
d="M595 700q72 0 136 -27.5t111.5 -75t75 -111.5t27.5 -136t-27.5 -136t-75 -111.5t-111.5 -75t-136 -27.5h-250v200h-100v100h100v400h250zM595 100q52 0 97.5 19.5t79.5 53.5t53.5 79.5t19.5 97.5t-19.5 97.5t-53.5 79.5t-79.5 53.5t-97.5 19.5h-150v-300h100v-100h-100
v-100h150z" />
    <glyph glyph-name="ntilde" unicode="&#xf1;" horiz-adv-x="1090" 
d="M698 806q-28 -8 -57.5 -5.5t-57.5 16.5q-36 20 -76 7q-19 -5 -34 -18l-31 39q11 9 23.5 16t26.5 11q28 8 57.5 6t57.5 -17q36 -20 76 -7q20 7 34 18l31 -39q-22 -18 -50 -27zM895 700v-700h-6l-494 472v-472h-100v700h5l495 -472v472h100z" />
    <glyph glyph-name="ograve" unicode="&#xf2;" horiz-adv-x="990" 
d="M418 863l15 48l239 -74l-15 -48zM895 350q0 -72 -27.5 -136t-75 -111.5t-111.5 -75t-136 -27.5t-136 27.5t-111.5 75t-75 111.5t-27.5 136t27.5 136t75 111.5t111.5 75t136 27.5t136 -27.5t111.5 -75t75 -111.5t27.5 -136zM545 600q-52 0 -97.5 -19.5t-79.5 -53.5
t-53.5 -79.5t-19.5 -97.5t19.5 -97.5t53.5 -79.5t79.5 -53.5t97.5 -19.5t97.5 19.5t79.5 53.5t53.5 79.5t19.5 97.5t-19.5 97.5t-53.5 79.5t-79.5 53.5t-97.5 19.5z" />
    <glyph glyph-name="oacute" unicode="&#xf3;" horiz-adv-x="990" 
d="M433 789l-15 48l239 74l15 -48zM895 350q0 -72 -27.5 -136t-75 -111.5t-111.5 -75t-136 -27.5t-136 27.5t-111.5 75t-75 111.5t-27.5 136t27.5 136t75 111.5t111.5 75t136 27.5t136 -27.5t111.5 -75t75 -111.5t27.5 -136zM545 600q-52 0 -97.5 -19.5t-79.5 -53.5
t-53.5 -79.5t-19.5 -97.5t19.5 -97.5t53.5 -79.5t79.5 -53.5t97.5 -19.5t97.5 19.5t79.5 53.5t53.5 79.5t19.5 97.5t-19.5 97.5t-53.5 79.5t-79.5 53.5t-97.5 19.5z" />
    <glyph glyph-name="ocircumflex" unicode="&#xf4;" horiz-adv-x="990" 
d="M672 837l-15 -48l-112 35l-112 -35l-15 48l127 39zM895 350q0 -72 -27.5 -136t-75 -111.5t-111.5 -75t-136 -27.5t-136 27.5t-111.5 75t-75 111.5t-27.5 136t27.5 136t75 111.5t111.5 75t136 27.5t136 -27.5t111.5 -75t75 -111.5t27.5 -136zM545 600q-52 0 -97.5 -19.5
t-79.5 -53.5t-53.5 -79.5t-19.5 -97.5t19.5 -97.5t53.5 -79.5t79.5 -53.5t97.5 -19.5t97.5 19.5t79.5 53.5t53.5 79.5t19.5 97.5t-19.5 97.5t-53.5 79.5t-79.5 53.5t-97.5 19.5z" />
    <glyph glyph-name="otilde" unicode="&#xf5;" horiz-adv-x="990" 
d="M647 806q-27 -8 -56.5 -6t-57.5 17q-36 20 -76 7q-17 -4 -34 -18l-31 39q22 18 50 27q28 8 57.5 6t57.5 -17q36 -20 76 -7q9 2 17.5 7t16.5 11l31 -39q-23 -18 -51 -27zM895 350q0 -72 -27.5 -136t-75 -111.5t-111.5 -75t-136 -27.5t-136 27.5t-111.5 75t-75 111.5
t-27.5 136t27.5 136t75 111.5t111.5 75t136 27.5t136 -27.5t111.5 -75t75 -111.5t27.5 -136zM545 600q-52 0 -97.5 -19.5t-79.5 -53.5t-53.5 -79.5t-19.5 -97.5t19.5 -97.5t53.5 -79.5t79.5 -53.5t97.5 -19.5t97.5 19.5t79.5 53.5t53.5 79.5t19.5 97.5t-19.5 97.5
t-53.5 79.5t-79.5 53.5t-97.5 19.5z" />
    <glyph glyph-name="odieresis" unicode="&#xf6;" horiz-adv-x="990" 
d="M445 850q0 -21 -14.5 -35.5t-35.5 -14.5t-35.5 14.5t-14.5 35.5t14.5 35.5t35.5 14.5t35.5 -14.5t14.5 -35.5zM745 850q0 -21 -14.5 -35.5t-35.5 -14.5t-35.5 14.5t-14.5 35.5t14.5 35.5t35.5 14.5t35.5 -14.5t14.5 -35.5zM895 350q0 -72 -27.5 -136t-75 -111.5
t-111.5 -75t-136 -27.5t-136 27.5t-111.5 75t-75 111.5t-27.5 136t27.5 136t75 111.5t111.5 75t136 27.5t136 -27.5t111.5 -75t75 -111.5t27.5 -136zM545 600q-52 0 -97.5 -19.5t-79.5 -53.5t-53.5 -79.5t-19.5 -97.5t19.5 -97.5t53.5 -79.5t79.5 -53.5t97.5 -19.5
t97.5 19.5t79.5 53.5t53.5 79.5t19.5 97.5t-19.5 97.5t-53.5 79.5t-79.5 53.5t-97.5 19.5z" />
    <glyph glyph-name="divide" unicode="&#xf7;" horiz-adv-x="850" 
d="M550 550q0 -31 -22 -53t-53 -22t-53 22t-22 53t22 53t53 22t53 -22t22 -53zM225 300v100h500v-100h-500zM550 150q0 -31 -22 -53t-53 -22t-53 22t-22 53t22 53t53 22t53 -22t22 -53z" />
    <glyph glyph-name="oslash" unicode="&#xf8;" horiz-adv-x="1038" 
d="M923 633l-74 -73q33 -45 51.5 -97.5t18.5 -112.5q0 -72 -27.5 -136t-75 -111.5t-111.5 -75t-136 -27.5q-60 0 -112.5 18.5t-97.5 51.5l-73 -74l-71 71l74 73q-33 45 -51.5 97.5t-18.5 112.5q0 72 27.5 136t75 111.5t111.5 75t136 27.5q60 0 112.5 -18.5t97.5 -51.5l73 74
zM319 350q0 -38 10.5 -73t30.5 -65l347 347q-30 20 -65 30.5t-73 10.5q-52 0 -97.5 -19.5t-79.5 -53.5t-53.5 -79.5t-19.5 -97.5zM819 350q0 38 -10.5 73t-30.5 65l-347 -347q30 -20 65 -30.5t73 -10.5q52 0 97.5 19.5t79.5 53.5t53.5 79.5t19.5 97.5z" />
    <glyph glyph-name="ugrave" unicode="&#xf9;" horiz-adv-x="1050" 
d="M448 863l15 48l239 -74l-15 -48zM875 300q0 -62 -23.5 -117t-64 -95.5t-95.5 -64t-117 -23.5t-117 23.5t-95.5 64t-64 95.5t-23.5 117v400h100v-400q0 -42 15.5 -78.5t42.5 -63.5t63.5 -42.5t78.5 -15.5q41 0 77.5 15.5t63.5 42.5t43 63.5t16 78.5v400h100v-400z" />
    <glyph glyph-name="uacute" unicode="&#xfa;" horiz-adv-x="1050" 
d="M463 789l-15 48l239 74l15 -48zM875 300q0 -62 -23.5 -117t-64 -95.5t-95.5 -64t-117 -23.5t-117 23.5t-95.5 64t-64 95.5t-23.5 117v400h100v-400q0 -42 15.5 -78.5t42.5 -63.5t63.5 -42.5t78.5 -15.5q41 0 77.5 15.5t63.5 42.5t43 63.5t16 78.5v400h100v-400z" />
    <glyph glyph-name="ucircumflex" unicode="&#xfb;" horiz-adv-x="1050" 
d="M702 837l-15 -48l-112 35l-112 -35l-15 48l127 39zM875 300q0 -62 -23.5 -117t-64 -95.5t-95.5 -64t-117 -23.5t-117 23.5t-95.5 64t-64 95.5t-23.5 117v400h100v-400q0 -42 15.5 -78.5t42.5 -63.5t63.5 -42.5t78.5 -15.5q41 0 77.5 15.5t63.5 42.5t43 63.5t16 78.5v400
h100v-400z" />
    <glyph glyph-name="udieresis" unicode="&#xfc;" horiz-adv-x="1050" 
d="M475 850q0 -21 -14.5 -35.5t-35.5 -14.5t-35.5 14.5t-14.5 35.5t14.5 35.5t35.5 14.5t35.5 -14.5t14.5 -35.5zM775 850q0 -21 -14.5 -35.5t-35.5 -14.5t-35.5 14.5t-14.5 35.5t14.5 35.5t35.5 14.5t35.5 -14.5t14.5 -35.5zM875 300q0 -62 -23.5 -117t-64 -95.5t-95.5 -64
t-117 -23.5t-117 23.5t-95.5 64t-64 95.5t-23.5 117v400h100v-400q0 -42 15.5 -78.5t42.5 -63.5t63.5 -42.5t78.5 -15.5q41 0 77.5 15.5t63.5 42.5t43 63.5t16 78.5v400h100v-400z" />
    <glyph glyph-name="yacute" unicode="&#xfd;" horiz-adv-x="893" 
d="M384 789l-15 48l239 74l15 -48zM828 700l-282 -449v-251h-100v251l-281 449h118l213 -340l214 340h118z" />
    <glyph glyph-name="thorn" unicode="&#xfe;" horiz-adv-x="930" 
d="M545 600q52 0 97.5 -19.5t79.5 -53.5t53.5 -79.5t19.5 -97.5t-19.5 -97.5t-53.5 -79.5t-79.5 -53.5t-97.5 -19.5h-150v-100h-100v700h100v-100h150zM545 200q31 0 58.5 12t47.5 32t32 47.5t12 58.5t-12 58.5t-32 47.5t-47.5 32t-58.5 12h-150v-300h150z" />
    <glyph glyph-name="ydieresis" unicode="&#xff;" horiz-adv-x="893" 
d="M396 850q0 -21 -14.5 -35.5t-35.5 -14.5q-20 0 -35 14.5t-15 35.5t15 35.5t35 14.5q21 0 35.5 -14.5t14.5 -35.5zM696 850q0 -21 -14.5 -35.5t-35.5 -14.5q-20 0 -35 14.5t-15 35.5t15 35.5t35 14.5q21 0 35.5 -14.5t14.5 -35.5zM828 700l-282 -449v-251h-100v251
l-281 449h118l213 -340l214 340h118z" />
    <glyph glyph-name="dotlessi" unicode="&#x131;" 
d="M395 0h-100v700h100v-700z" />
    <glyph glyph-name="Lslash" unicode="&#x141;" horiz-adv-x="1000" 
d="M475 100h400v-100h-500v283l-100 -30v105l100 29v313h100v-283l100 30v-105l-100 -29v-213z" />
    <glyph glyph-name="lslash" unicode="&#x142;" horiz-adv-x="1000" 
d="M475 100h400v-100h-500v283l-100 -30v105l100 29v313h100v-283l100 30v-105l-100 -29v-213z" />
    <glyph glyph-name="OE" unicode="&#x152;" horiz-adv-x="1305" 
d="M720 600v-275h300v-100h-300v-125h400v-100h-575q-72 0 -136 27.5t-111.5 75t-75 111.5t-27.5 136t27.5 136t75 111.5t111.5 75t136 27.5h575v-100h-400zM620 100v500h-75q-52 0 -97.5 -19.5t-79.5 -53.5t-53.5 -79.5t-19.5 -97.5t19.5 -97.5t53.5 -79.5t79.5 -53.5
t97.5 -19.5h75z" />
    <glyph glyph-name="oe" unicode="&#x153;" horiz-adv-x="1305" 
d="M720 600v-275h300v-100h-300v-125h400v-100h-575q-72 0 -136 27.5t-111.5 75t-75 111.5t-27.5 136t27.5 136t75 111.5t111.5 75t136 27.5h575v-100h-400zM620 100v500h-75q-52 0 -97.5 -19.5t-79.5 -53.5t-53.5 -79.5t-19.5 -97.5t19.5 -97.5t53.5 -79.5t79.5 -53.5
t97.5 -19.5h75z" />
    <glyph glyph-name="Scaron" unicode="&#x160;" horiz-adv-x="780" 
d="M445 784l-127 39l15 48l112 -34l112 34l15 -48zM445 600q-42 0 -71 -29t-29 -71t29 -71t71 -29q41 0 77.5 -16t63.5 -43t43 -63.5t16 -77.5q0 -42 -16 -78.5t-43 -63.5t-63.5 -42.5t-77.5 -15.5q-33 0 -62.5 10t-54 27.5t-43.5 42t-29 53.5l95 34q10 -29 35.5 -48
t58.5 -19q42 0 71 29t29 71t-29 71t-71 29t-78.5 15.5t-63.5 42.5t-42.5 63.5t-15.5 78.5q0 41 15.5 77.5t42.5 63.5t63.5 43t78.5 16q33 0 62.5 -10t54 -27.5t43 -42t29.5 -53.5l-95 -34q-10 29 -36 48t-58 19z" />
    <glyph glyph-name="scaron" unicode="&#x161;" horiz-adv-x="780" 
d="M445 784l-127 39l15 48l112 -34l112 34l15 -48zM445 600q-42 0 -71 -29t-29 -71t29 -71t71 -29q41 0 77.5 -16t63.5 -43t43 -63.5t16 -77.5q0 -42 -16 -78.5t-43 -63.5t-63.5 -42.5t-77.5 -15.5q-33 0 -62.5 10t-54 27.5t-43.5 42t-29 53.5l95 34q10 -29 35.5 -48
t58.5 -19q42 0 71 29t29 71t-29 71t-71 29t-78.5 15.5t-63.5 42.5t-42.5 63.5t-15.5 78.5q0 41 15.5 77.5t42.5 63.5t63.5 43t78.5 16q33 0 62.5 -10t54 -27.5t43 -42t29.5 -53.5l-95 -34q-10 29 -36 48t-58 19z" />
    <glyph glyph-name="Ydieresis" unicode="&#x178;" horiz-adv-x="893" 
d="M396 850q0 -21 -14.5 -35.5t-35.5 -14.5q-20 0 -35 14.5t-15 35.5t15 35.5t35 14.5q21 0 35.5 -14.5t14.5 -35.5zM696 850q0 -21 -14.5 -35.5t-35.5 -14.5q-20 0 -35 14.5t-15 35.5t15 35.5t35 14.5q21 0 35.5 -14.5t14.5 -35.5zM828 700l-282 -449v-251h-100v251
l-281 449h118l213 -340l214 340h118z" />
    <glyph glyph-name="Zcaron" unicode="&#x17d;" horiz-adv-x="864" 
d="M490 784l-127 39l15 48l112 -34l112 34l15 -48zM732 700l-331 -600h331v-100h-500l331 600h-316v100h485z" />
    <glyph glyph-name="zcaron" unicode="&#x17e;" horiz-adv-x="864" 
d="M490 784l-127 39l15 48l112 -34l112 34l15 -48zM732 700l-331 -600h331v-100h-500l331 600h-316v100h485z" />
    <glyph glyph-name="florin" unicode="&#x192;" horiz-adv-x="774" 
d="M502 450h129l-14 -100h-129l-34 -245q-5 -31 -20.5 -56.5t-38.5 -42.5t-51.5 -25t-59.5 -4q-48 7 -82.5 40t-43.5 79l98 20q3 -15 14 -26.5t28 -13.5q20 -2 37 10.5t19 32.5l33 231h-99l14 100h99l20 143q4 31 19.5 56.5t38.5 43t51.5 25t59.5 3.5q49 -7 83 -40t43 -78
l-98 -20q-3 15 -14 26t-28 13q-20 3 -36.5 -9.5t-19.5 -33.5z" />
    <glyph glyph-name="circumflex" unicode="&#x2c6;" horiz-adv-x="616" 
d="M485 837l-15 -48l-112 35l-112 -35l-15 48l127 39z" />
    <glyph glyph-name="caron" unicode="&#x2c7;" horiz-adv-x="616" 
d="M485 823l-127 -39l-127 39l15 48l112 -34l112 34l15 -48v0z" />
    <glyph glyph-name="dotaccent" unicode="&#x2d9;" horiz-adv-x="450" 
d="M325 850q0 -21 -14.5 -35.5t-35.5 -14.5t-35.5 14.5t-14.5 35.5t14.5 35.5t35.5 14.5t35.5 -14.5t14.5 -35.5z" />
    <glyph glyph-name="ring" unicode="&#x2da;" horiz-adv-x="502" 
d="M376 875q0 -31 -22 -53t-53 -22t-53 22t-22 53t22 53t53 22t53 -22t22 -53zM301 900q-11 0 -18 -7t-7 -18t7 -18t18 -7t18 7t7 18t-7 18t-18 7z" />
    <glyph glyph-name="tilde" unicode="&#x2dc;" horiz-adv-x="676" 
d="M490 806q-27 -8 -56.5 -6t-57.5 17q-36 20 -76 7q-17 -4 -34 -18l-31 39q22 18 50 27q28 8 57.5 6t57.5 -17q36 -20 76 -7q9 2 17.5 7t16.5 11l31 -39q-23 -18 -51 -27z" />
    <glyph glyph-name="endash" unicode="&#x2013;" horiz-adv-x="850" 
d="M725 300h-500v100h500v-100v0z" />
    <glyph glyph-name="emdash" unicode="&#x2014;" horiz-adv-x="1350" 
d="M1225 300h-1000v100h1000v-100v0z" />
    <glyph glyph-name="quoteleft" unicode="&#x2018;" horiz-adv-x="450" 
d="M225 600l50 100h50v-200h-100v100v0z" />
    <glyph glyph-name="quoteright" unicode="&#x2019;" horiz-adv-x="450" 
d="M325 600l-50 -100h-50v200h100v-100v0z" />
    <glyph glyph-name="quotesinglbase" unicode="&#x201a;" horiz-adv-x="450" 
d="M325 0l-50 -100h-50v200h100v-100v0z" />
    <glyph glyph-name="quotedblleft" unicode="&#x201c;" horiz-adv-x="650" 
d="M475 700h50v-200h-100v100zM275 700h50v-200h-100v100z" />
    <glyph glyph-name="quotedblright" unicode="&#x201d;" horiz-adv-x="650" 
d="M475 500h-50v200h100v-100zM275 500h-50v200h100v-100z" />
    <glyph glyph-name="quotedblbase" unicode="&#x201e;" horiz-adv-x="650" 
d="M475 -100h-50v200h100v-100zM275 -100h-50v200h100v-100z" />
    <glyph glyph-name="dagger" unicode="&#x2020;" horiz-adv-x="750" 
d="M625 550v-100h-150v-450h-100v450h-150v100h150v150h100v-150h150z" />
    <glyph glyph-name="daggerdbl" unicode="&#x2021;" horiz-adv-x="750" 
d="M625 450h-150v-200h150v-100h-150v-150h-100v150h-150v100h150v200h-150v100h150v150h100v-150h150v-100z" />
    <glyph glyph-name="bullet" unicode="&#x2022;" horiz-adv-x="550" 
d="M425 350q0 -42 -29 -71t-71 -29t-71 29t-29 71t29 71t71 29t71 -29t29 -71z" />
    <glyph glyph-name="ellipsis" unicode="&#x2026;" horiz-adv-x="1000" 
d="M225 0v100h100v-100h-100zM500 0v100h100v-100h-100zM775 0v100h100v-100h-100z" />
    <glyph glyph-name="perthousand" unicode="&#x2030;" horiz-adv-x="1389" 
d="M495 575q0 -26 -10 -48.5t-27 -39.5t-39.5 -27t-48.5 -10t-48.5 10t-39.5 27t-27 39.5t-10 48.5t10 48.5t27 39.5t39.5 27t48.5 10t48.5 -10t39.5 -27t27 -39.5t10 -48.5zM370 650q-31 0 -53 -22t-22 -53t22 -53t53 -22t53 22t22 53t-22 53t-53 22zM269 31l517 684
l60 -46l-517 -683zM1244 125q0 -26 -10 -48.5t-27 -39.5t-39.5 -27t-48.5 -10t-48.5 10t-39.5 27t-27 39.5t-10 48.5t10 48.5t27 39.5t39.5 27t48.5 10t48.5 -10t39.5 -27t27 -39.5t10 -48.5zM1119 200q-32 0 -53.5 -22t-21.5 -53t21.5 -53t53.5 -22q31 0 53 22t22 53
t-22 53t-53 22zM886 125q0 -26 -10 -48.5t-27 -39.5t-39.5 -27t-48.5 -10t-48.5 10t-39.5 27t-27 39.5t-10 48.5t10 48.5t27 39.5t39.5 27t48.5 10t48.5 -10t39.5 -27t27 -39.5t10 -48.5zM761 200q-32 0 -53.5 -22t-21.5 -53t21.5 -53t53.5 -22q31 0 53 22t22 53t-22 53
t-53 22z" />
    <glyph glyph-name="guilsinglleft" unicode="&#x2039;" horiz-adv-x="511" 
d="M334 555l82 -58l-103 -147l103 -147l-82 -58l-143 205l143 205v0z" />
    <glyph glyph-name="guilsinglright" unicode="&#x203a;" horiz-adv-x="511" 
d="M277 555l143 -205l-143 -205l-82 58l103 147l-103 147z" />
    <glyph glyph-name="fraction" unicode="&#x2044;" horiz-adv-x="807" 
d="M225 -14l-60 45l518 684l59 -46l-517 -683v0z" />
    <glyph glyph-name="Euro" unicode="&#x20ac;" horiz-adv-x="1039" 
d="M655 100q62 0 113.5 27t86.5 73l79 -61q-48 -63 -120.5 -101t-158.5 -38q-53 0 -101 14.5t-88.5 41t-73 63.5t-53.5 81h-127l25 100h71q-3 24 -3 50t3 50h-78l25 100h84q21 44 53.5 81t73 63.5t88.5 41t101 14.5q86 0 158.5 -38t120.5 -101l-79 -61q-35 46 -86.5 73
t-113.5 27t-113.5 -27t-86.5 -73h150l-25 -100h-170q-2 -12 -3.5 -24.5t-1.5 -25.5t1.5 -25.5t3.5 -24.5h177l-25 -100h-107q35 -46 86.5 -73t113.5 -27z" />
    <glyph glyph-name="uni2116" unicode="&#x2116;" horiz-adv-x="1496" 
d="M1034 65v100h257v-100h-257zM1251 418q0 34 -24 57.5t-57 23.5q-34 0 -57.5 -23.5t-23.5 -57.5t23.5 -57.5t57.5 -23.5q33 0 57 23.5t24 57.5zM1170 599q37 0 70 -14t58 -39t39 -58t14 -70q0 -38 -14 -70.5t-39 -57.5t-58 -39t-70 -14q-38 0 -70.5 14t-57.5 39t-39 57.5
t-14 70.5q0 37 14 70t39 58t57.5 39t70.5 14zM745 -15l-191 466q-14 -134 -42.5 -229t-71 -154.5t-99 -86.5t-126.5 -26v100q70 -5 118 41.5t77 131.5t41.5 201t12.5 251l97 19l202 -493q16 128 34 240q8 48 17.5 96.5t20 93t22 80.5t24.5 58l87 -50q-13 -28 -29.5 -89
t-34 -153t-34 -213.5t-29.5 -268.5z" />
    <glyph glyph-name="trademark" unicode="&#x2122;" horiz-adv-x="676" 
d="M195 660v40h174v-40h-67v-161h-40v161h-67zM538 700h43v-201h-40v134l-47 -69l-47 69v-134h-40v201h43l44 -65z" />
    <glyph glyph-name="minus" unicode="&#x2212;" horiz-adv-x="850" 
d="M725 300h-500v100h500v-100z" />
    </font>
</defs>
</svg>
